<?xml version="1.0" encoding="utf-8"?>
<!-- Generator: Adobe Illustrator 16.0.4, SVG Export Plug-In . SVG Version: 6.00 Build 0)  -->
<!DOCTYPE svg PUBLIC "-//W3C//DTD SVG 1.1//EN" "http://www.w3.org/Graphics/SVG/1.1/DTD/svg11.dtd">
<svg version="1.1" id="Layer_1" xmlns="http://www.w3.org/2000/svg" xmlns:xlink="http://www.w3.org/1999/xlink" x="0px" y="0px"
	 width="201.01px" height="185.803px" viewBox="0 0 201.01 185.803" enable-background="new 0 0 201.01 185.803"
	 xml:space="preserve">
<g id="XMLID_11_">
	<g>
		<path fill="#F4ABAA" d="M151.991,43.257c-7.06-7.05-26.607-20.176-26.607-20.176l-0.188-0.188v-0.009l18.351-17.732
			c0,0,1.151-1.826,6.319-3.343c4.513-1.376,16.89,3.782,29.426,16.16c12.518,12.349,19.221,24.454,16.665,28.451
			c-2.21,3.399-6.002,6.741-6.002,6.741l-17.339,16.749C171.269,67.982,158.694,49.97,151.991,43.257z"/>
		<path fill="#D1D3D4" d="M137.882,55.812c-6.469-6.395-23.293-17.919-26.187-19.886l13.501-13.032l0.188,0.188
			c0,0,19.548,13.126,26.607,20.176c6.703,6.713,19.277,24.726,20.625,26.654l-13.669,13.211l-0.009-0.01
			C158.938,83.112,144.941,62.899,137.882,55.812z"/>
		<path fill="#FDA720" d="M158.938,83.112l0.009,0.01l-70.245,67.857l-8.202,2.912v-0.01l-1.16-11.291l-20.27-0.768l-3.596-22.938
			l-16.468,4.644l-1.021-9.25v-0.009l4.344-11.301l69.365-67.044c2.894,1.967,19.718,13.491,26.187,19.886
			C144.941,62.899,158.938,83.112,158.938,83.112z"/>
		<polygon fill="#231F20" points="13.653,177.662 24.093,150.483 41.413,167.795 		"/>
		<polygon fill="#E1B89A" points="79.34,142.591 80.5,153.882 80.5,153.892 41.422,167.795 41.413,167.795 24.093,150.483 
			37.986,114.279 39.007,123.529 55.475,118.886 59.07,141.823 		"/>
	</g>
	<g>
		<path fill="none" stroke="#231F20" stroke-width="1.8402" stroke-miterlimit="10" d="M41.422,167.795L80.5,153.892l8.202-2.912
			l70.245-67.857l13.669-13.211l17.339-16.749c0,0,3.792-3.342,6.002-6.741c2.556-3.997-4.147-16.103-16.665-28.451
			C166.756,5.592,154.379,0.434,149.866,1.81c-5.168,1.517-6.319,3.343-6.319,3.343l-18.351,17.732v0.009l-13.501,13.032
			L42.33,102.97l-4.344,11.301"/>
		<polyline fill="none" stroke="#231F20" stroke-width="1.8402" stroke-miterlimit="10" points="37.986,114.279 24.093,150.483 
			13.653,177.662 41.413,167.795 		"/>
		<path fill="none" stroke="#231F20" stroke-width="1.8402" stroke-miterlimit="10" d="M125.384,23.081
			c0,0,19.548,13.126,26.607,20.176c6.703,6.713,19.277,24.726,20.625,26.654c0.075,0.112,0.112,0.169,0.112,0.169"/>
		<path fill="none" stroke="#231F20" stroke-width="1.8402" stroke-miterlimit="10" d="M111.265,35.636c0,0,0.15,0.104,0.431,0.29
			c2.894,1.967,19.718,13.491,26.187,19.886c7.06,7.088,21.057,27.301,21.057,27.301"/>
		<polyline fill="none" stroke="#231F20" stroke-width="1.8402" stroke-miterlimit="10" points="80.5,153.882 79.34,142.591 
			59.07,141.823 55.475,118.886 39.007,123.529 37.986,114.279 37.986,114.271 		"/>
		<polyline fill="none" stroke="#231F20" stroke-width="1.8402" stroke-miterlimit="10" points="24.093,150.483 41.413,167.795 
			41.422,167.795 41.432,167.804 		"/>
	</g>
</g>
</svg>
