<?xml version="1.0" encoding="utf-8"?>
<!-- Generator: Adobe Illustrator 16.0.4, SVG Export Plug-In . SVG Version: 6.00 Build 0)  -->
<!DOCTYPE svg PUBLIC "-//W3C//DTD SVG 1.1//EN" "http://www.w3.org/Graphics/SVG/1.1/DTD/svg11.dtd">
<svg version="1.1" id="Layer_1" xmlns="http://www.w3.org/2000/svg" xmlns:xlink="http://www.w3.org/1999/xlink" x="0px" y="0px"
	 width="131.552px" height="189.748px" viewBox="0 0 131.552 189.748" enable-background="new 0 0 131.552 189.748"
	 xml:space="preserve">
<g>
	<g>
		<path fill="#D1D3D4" d="M124.775,148.075c0,7.039-5.631,14.01-12.513,15.488c0,0-17.715,3.809-22.448,7.596
			c-4.705,3.767-7.185,10.51-12.047,12.788c-4.861,2.276-20.262,2.369-25.751,0c-5.489-2.37-5.669-9.204-10.612-12.788
			c-5.268-3.817-23.864-7.682-23.864-7.682c-6.893-1.432-12.531-8.363-12.531-15.402V70.173c0-7.039,5.759-12.799,12.799-12.799
			h94.169c7.039,0,12.799,5.76,12.799,12.799V148.075z"/>
	</g>
	<g>
		<path fill="#343C9F" d="M120.51,146.7c0,6.487-5.193,12.895-11.539,14.238c0,0-16.535,3.5-20.931,6.963
			c-4.372,3.444-6.674,9.611-11.19,11.694c-4.514,2.083-18.818,2.167-23.916,0s-5.266-8.417-9.856-11.694
			c-4.892-3.491-22.247-7.042-22.247-7.042c-6.355-1.3-11.556-7.672-11.556-14.159V75.639c0-6.487,5.308-11.795,11.796-11.795
			h87.645c6.486,0,11.795,5.308,11.795,11.795V146.7z"/>
	</g>
	<g>
		<path fill="#BCBEC0" d="M106.737,59.729H64.517H22.296c-1.681-0.255-4.433-0.17-7.242,0.629c-2.108,0.599-3.496,1.512-4.293,2.37
			c-0.797,0.859-1.003,1.664-0.747,2.044c0.291,0.431,0.68,0.458,1.775,0.17c1.645-0.434,3.398-1.265,5.224-1.783
			c1.398-0.397,3.311-0.861,4.202-1.064h43.048h43.048c0.874,0,2.663-0.53,2.663-1.184
			C109.974,60.258,107.609,59.729,106.737,59.729z"/>
		<path fill="#BDBFC1" d="M15.075,60.371c-2.073,0.589-3.44,1.487-4.226,2.332c-0.783,0.847-0.988,1.64-0.735,2.013
			c0.103,0.153,0.22,0.252,0.381,0.304c0.288,0.093,0.703,0.034,1.406-0.15c0.753-0.199,1.522-0.477,2.298-0.77
			c0.301-0.107,0.605-0.22,0.913-0.33c0.643-0.238,1.329-0.471,1.993-0.658c1.365-0.388,3.319-0.841,4.19-1.04h40.767h2.168h42.982
			c0.874,0,2.661-0.52,2.661-1.16s-2.362-1.16-3.234-1.16H64.451h-0.045H22.295c-0.676-0.103-1.59-0.148-2.551-0.113
			c-0.432,0.017-0.881,0.049-1.344,0.099C17.354,59.844,16.219,60.047,15.075,60.371z"/>
		<path fill="#BEC0C2" d="M15.098,60.384c-2.043,0.58-3.387,1.464-4.158,2.295c-0.771,0.832-0.972,1.612-0.724,1.98
			c0.103,0.152,0.22,0.25,0.385,0.298c0.295,0.086,0.713,0.024,1.413-0.16c0.76-0.202,1.53-0.478,2.295-0.769
			c0.299-0.104,0.604-0.213,0.91-0.32c0.629-0.233,1.33-0.459,1.979-0.643c1.333-0.379,3.328-0.821,4.179-1.015h40.668h2.151h42.919
			c0.872,0,2.659-0.512,2.659-1.141c0-0.628-2.36-1.138-3.232-1.138H64.387h-0.06H22.293c-0.66-0.1-1.613-0.145-2.552-0.109
			c-0.431,0.016-0.88,0.047-1.338,0.098C17.369,59.863,16.239,60.061,15.098,60.384z"/>
		<path fill="#BFC1C3" d="M15.119,60.397c-2.009,0.569-3.331,1.439-4.09,2.257c-0.76,0.819-0.957,1.587-0.713,1.948
			c0.104,0.152,0.221,0.247,0.389,0.292c0.301,0.081,0.724,0.014,1.422-0.171c0.765-0.203,1.537-0.479,2.29-0.767
			c0.297-0.102,0.603-0.207,0.911-0.312c0.612-0.227,1.33-0.447,1.962-0.626c1.301-0.37,3.338-0.802,4.167-0.99h40.572h2.134h42.854
			c0.873,0,2.657-0.501,2.657-1.118c0-0.615-2.359-1.115-3.229-1.115H64.32h-0.071H22.291c-0.644-0.098-1.636-0.142-2.552-0.107
			c-0.432,0.016-0.88,0.047-1.334,0.097C17.385,59.882,16.258,60.074,15.119,60.397z"/>
		<path fill="#C0C2C4" d="M15.142,60.409c-1.977,0.562-3.276,1.417-4.024,2.221c-0.746,0.807-0.939,1.561-0.699,1.916
			c0.103,0.152,0.22,0.245,0.394,0.287c0.307,0.075,0.732,0.003,1.428-0.182c0.771-0.206,1.544-0.479,2.285-0.766
			c0.298-0.1,0.603-0.201,0.909-0.304c0.598-0.222,1.332-0.437,1.949-0.611c1.268-0.36,3.347-0.781,4.155-0.965h40.474h2.117h42.789
			c0.872,0,2.656-0.491,2.656-1.097c0-0.603-2.357-1.093-3.227-1.093H64.256H64.17H22.289c-0.627-0.095-1.66-0.138-2.553-0.104
			c-0.432,0.015-0.878,0.047-1.328,0.097C17.4,59.9,16.276,60.088,15.142,60.409z"/>
		<path fill="#C1C3C5" d="M15.162,60.423c-1.943,0.552-3.221,1.393-3.955,2.184c-0.734,0.792-0.924,1.533-0.689,1.883
			c0.104,0.152,0.221,0.242,0.399,0.281c0.312,0.069,0.741-0.008,1.435-0.191c0.777-0.208,1.553-0.48,2.281-0.766
			c0.297-0.095,0.601-0.193,0.91-0.294c0.581-0.216,1.332-0.426,1.933-0.596c1.235-0.351,3.354-0.761,4.143-0.94h40.378h2.101
			h42.725c0.871,0,2.653-0.48,2.653-1.073c0-0.592-2.356-1.072-3.225-1.072H64.189h-0.099H22.287
			c-0.611-0.092-1.684-0.134-2.554-0.102c-0.433,0.015-0.877,0.047-1.322,0.097C17.416,59.919,16.295,60.102,15.162,60.423z"/>
		<path fill="#C2C4C6" d="M15.185,60.436c-1.909,0.543-3.167,1.369-3.888,2.147c-0.722,0.777-0.909,1.506-0.677,1.851
			c0.103,0.151,0.22,0.239,0.402,0.274c0.318,0.062,0.751-0.018,1.441-0.201c0.785-0.21,1.562-0.482,2.279-0.764
			c0.292-0.092,0.599-0.188,0.907-0.285c0.566-0.21,1.332-0.414,1.918-0.58c1.203-0.342,3.364-0.741,4.131-0.916H61.98h2.083h42.66
			c0.87,0,2.65-0.471,2.65-1.052c0-0.579-2.353-1.05-3.222-1.05H64.127h-0.114H22.285c-0.594-0.09-1.706-0.13-2.555-0.099
			c-0.432,0.014-0.876,0.046-1.316,0.096C17.432,59.938,16.314,60.116,15.185,60.436z"/>
		<path fill="#C3C5C7" d="M15.206,60.449c-1.876,0.533-3.111,1.345-3.821,2.109c-0.707,0.765-0.892,1.481-0.664,1.818
			c0.103,0.151,0.221,0.235,0.408,0.269c0.324,0.057,0.76-0.028,1.448-0.211c0.79-0.212,1.568-0.483,2.274-0.763
			c0.293-0.089,0.598-0.182,0.908-0.276c0.551-0.205,1.332-0.403,1.901-0.564c1.171-0.332,3.373-0.721,4.119-0.891h40.183h2.066
			h42.596c0.871,0,2.649-0.462,2.649-1.03c0-0.567-2.351-1.027-3.219-1.027H64.06h-0.126h-41.65
			c-0.578-0.088-1.729-0.127-2.554-0.097c-0.433,0.014-0.876,0.046-1.312,0.095C17.447,59.956,16.333,60.13,15.206,60.449z"/>
		<path fill="#C4C6C7" d="M15.229,60.462c-1.844,0.523-3.057,1.321-3.753,2.072c-0.697,0.751-0.876,1.454-0.653,1.786
			c0.102,0.151,0.22,0.233,0.412,0.263c0.33,0.051,0.77-0.039,1.455-0.222c0.796-0.214,1.576-0.483,2.27-0.761
			c0.293-0.086,0.598-0.176,0.908-0.268c0.535-0.199,1.332-0.392,1.885-0.549c1.14-0.323,3.383-0.701,4.109-0.866h40.086h2.049
			h42.531c0.869,0,2.646-0.452,2.646-1.008c0-0.555-2.349-1.006-3.217-1.006H63.994h-0.141H22.282
			c-0.563-0.085-1.755-0.123-2.556-0.094c-0.433,0.014-0.875,0.045-1.307,0.095C17.462,59.975,16.352,60.144,15.229,60.462z"/>
		<path fill="#C5C7C8" d="M15.25,60.476c-1.81,0.514-3.001,1.298-3.685,2.034c-0.685,0.738-0.86,1.429-0.642,1.755
			c0.102,0.15,0.22,0.23,0.417,0.257c0.335,0.045,0.779-0.05,1.46-0.231c0.804-0.217,1.586-0.485,2.268-0.761
			c0.29-0.082,0.596-0.169,0.906-0.259c0.521-0.193,1.335-0.381,1.872-0.533c1.104-0.313,3.39-0.68,4.095-0.841h39.989h2.032h42.468
			c0.868,0,2.645-0.442,2.645-0.986c0-0.542-2.348-0.983-3.214-0.983H63.93h-0.154H22.281c-0.547-0.083-1.779-0.119-2.557-0.091
			c-0.434,0.013-0.875,0.044-1.302,0.094C17.479,59.994,16.371,60.157,15.25,60.476z"/>
		<path fill="#C6C8C9" d="M15.271,60.488c-1.776,0.505-2.945,1.274-3.617,1.997c-0.672,0.725-0.847,1.403-0.63,1.723
			c0.103,0.15,0.22,0.229,0.422,0.251c0.342,0.038,0.788-0.059,1.469-0.241c0.81-0.217,1.591-0.486,2.262-0.76
			c0.29-0.079,0.594-0.163,0.906-0.25c0.505-0.188,1.334-0.369,1.856-0.517c1.073-0.306,3.398-0.661,4.083-0.817h39.892h2.016
			h42.402c0.867,0,2.644-0.432,2.644-0.964c0-0.53-2.347-0.962-3.212-0.962H63.864h-0.168H22.278
			c-0.53-0.08-1.801-0.115-2.556-0.088c-0.435,0.012-0.873,0.044-1.297,0.094C17.494,60.013,16.391,60.171,15.271,60.488z"/>
		<path fill="#C7C8CA" d="M15.293,60.501c-1.744,0.495-2.891,1.25-3.55,1.961c-0.657,0.711-0.829,1.375-0.616,1.689
			c0.101,0.15,0.218,0.226,0.424,0.245c0.348,0.033,0.799-0.071,1.477-0.252c0.815-0.221,1.6-0.487,2.258-0.759
			c0.289-0.075,0.593-0.156,0.905-0.24c0.49-0.182,1.335-0.357,1.841-0.501c1.041-0.296,3.408-0.642,4.07-0.792h39.796h1.999h42.337
			c0.868,0,2.642-0.423,2.642-0.942c0-0.519-2.344-0.94-3.209-0.94H63.799h-0.181H22.277c-0.516-0.077-1.826-0.111-2.559-0.085
			c-0.434,0.013-0.872,0.044-1.29,0.093C17.51,60.031,16.409,60.185,15.293,60.501z"/>
		<path fill="#C8C9CB" d="M15.314,60.515c-1.709,0.486-2.835,1.227-3.482,1.923c-0.646,0.697-0.814,1.351-0.605,1.658
			c0.102,0.149,0.22,0.222,0.431,0.238c0.353,0.027,0.808-0.081,1.481-0.262c0.823-0.223,1.607-0.488,2.255-0.758
			c0.287-0.071,0.592-0.149,0.905-0.231c0.475-0.176,1.334-0.347,1.825-0.485c1.009-0.286,3.417-0.621,4.06-0.768h39.697h1.982
			h42.273c0.865,0,2.639-0.413,2.639-0.92c0-0.506-2.343-0.918-3.207-0.918H63.733h-0.194H22.275
			c-0.498-0.075-1.849-0.108-2.559-0.083c-0.434,0.012-0.871,0.044-1.285,0.093C17.525,60.05,16.428,60.199,15.314,60.515z"/>
		<path fill="#C9CACC" d="M15.337,60.527c-1.677,0.477-2.781,1.203-3.415,1.886c-0.634,0.684-0.798,1.324-0.594,1.627
			c0.101,0.148,0.219,0.219,0.436,0.231c0.357,0.021,0.816-0.091,1.488-0.271c0.828-0.226,1.614-0.489,2.25-0.756
			c0.286-0.069,0.591-0.145,0.904-0.224c0.459-0.17,1.336-0.336,1.811-0.47c0.976-0.277,3.426-0.601,4.048-0.742h39.601h1.965
			h42.208c0.866,0,2.638-0.403,2.638-0.898c0-0.494-2.34-0.896-3.205-0.896H63.668H63.46H22.273
			c-0.482-0.073-1.872-0.105-2.559-0.081c-0.435,0.012-0.871,0.044-1.281,0.093C17.541,60.068,16.446,60.213,15.337,60.527z"/>
		<path fill="#CACBCD" d="M15.359,60.541c-1.645,0.466-2.727,1.179-3.348,1.848c-0.621,0.671-0.782,1.298-0.582,1.595
			c0.1,0.148,0.219,0.217,0.439,0.227c0.363,0.016,0.826-0.103,1.495-0.282c0.835-0.228,1.622-0.491,2.247-0.755
			c0.284-0.066,0.588-0.138,0.902-0.214c0.444-0.165,1.336-0.325,1.796-0.455c0.942-0.268,3.435-0.581,4.036-0.718h39.503h1.948
			h42.144c0.866,0,2.635-0.393,2.635-0.876c0-0.481-2.339-0.874-3.202-0.874h-41.77h-0.223H22.271
			c-0.466-0.07-1.895-0.102-2.559-0.077c-0.436,0.011-0.87,0.042-1.277,0.091C17.557,60.087,16.465,60.227,15.359,60.541z"/>
		<path fill="#CBCCCE" d="M15.381,60.554c-1.611,0.457-2.672,1.155-3.28,1.811c-0.608,0.657-0.765,1.271-0.57,1.562
			c0.1,0.148,0.219,0.214,0.444,0.221c0.369,0.011,0.835-0.112,1.502-0.292c0.842-0.228,1.631-0.492,2.242-0.755
			c0.283-0.062,0.588-0.131,0.903-0.204c0.429-0.159,1.337-0.313,1.78-0.438c0.91-0.259,3.443-0.562,4.023-0.693h39.406h1.932
			h42.079c0.864,0,2.633-0.383,2.633-0.854c0-0.47-2.337-0.852-3.2-0.852H63.538h-0.235H22.271c-0.45-0.068-1.921-0.099-2.561-0.075
			c-0.436,0.011-0.869,0.042-1.271,0.091C17.572,60.106,16.484,60.241,15.381,60.554z"/>
		<path fill="#CCCDCF" d="M15.402,60.566c-1.578,0.448-2.617,1.132-3.213,1.774s-0.75,1.244-0.559,1.529
			c0.1,0.148,0.219,0.203,0.449,0.215c0.375,0.019,0.846-0.123,1.509-0.303c0.849-0.231,1.638-0.492,2.239-0.753
			c0.281-0.06,0.586-0.124,0.901-0.195c0.413-0.153,1.339-0.303,1.765-0.423c0.879-0.25,3.453-0.541,4.013-0.669h39.31h1.914h42.015
			c0.864,0,2.632-0.373,2.632-0.832c0-0.458-2.336-0.83-3.199-0.83H63.473h-0.249H22.27c-0.436-0.065-1.943-0.095-2.562-0.072
			c-0.436,0.011-0.867,0.042-1.266,0.091C17.588,60.124,16.502,60.255,15.402,60.566z"/>
		<path fill="#CDCED0" d="M15.424,60.579c-1.545,0.439-2.561,1.108-3.145,1.737c-0.584,0.63-0.734,1.219-0.547,1.497
			c0.1,0.148,0.219,0.201,0.453,0.209c0.381,0.012,0.855-0.134,1.516-0.312c0.854-0.233,1.646-0.493,2.236-0.752
			c0.279-0.056,0.584-0.118,0.9-0.187c0.398-0.147,1.338-0.291,1.749-0.407c0.846-0.24,3.462-0.521,4.001-0.645h39.211h1.898h41.949
			c0.865,0,2.629-0.363,2.629-0.81c0-0.445-2.333-0.808-3.195-0.808H63.407h-0.263H22.266c-0.417-0.063-1.965-0.092-2.561-0.07
			c-0.436,0.01-0.867,0.042-1.26,0.091C17.604,60.144,16.521,60.269,15.424,60.579z"/>
		<path fill="#CECFD1" d="M15.446,60.593c-1.513,0.43-2.507,1.084-3.079,1.699c-0.57,0.616-0.717,1.193-0.533,1.466
			c0.1,0.147,0.219,0.198,0.457,0.202c0.387,0.006,0.865-0.144,1.523-0.322c0.861-0.234,1.652-0.495,2.23-0.751
			c0.28-0.053,0.584-0.112,0.9-0.178c0.383-0.142,1.34-0.28,1.734-0.392c0.813-0.231,3.471-0.501,3.988-0.619h39.115h1.881h41.885
			c0.863,0,2.627-0.354,2.627-0.788c0-0.433-2.331-0.786-3.193-0.786H63.342h-0.275H22.266c-0.402-0.061-1.99-0.088-2.562-0.066
			c-0.438,0.01-0.867,0.041-1.256,0.09C17.619,60.162,16.541,60.282,15.446,60.593z"/>
		<path fill="#CFD0D2" d="M15.469,60.606c-1.479,0.419-2.453,1.059-3.012,1.661s-0.701,1.167-0.521,1.434
			c0.099,0.147,0.219,0.204,0.462,0.197c0.393-0.011,0.874-0.155,1.529-0.333c0.867-0.238,1.661-0.496,2.228-0.75
			c0.277-0.05,0.582-0.105,0.899-0.169c0.367-0.136,1.339-0.269,1.719-0.376c0.78-0.222,3.479-0.48,3.977-0.594h39.017h1.865h41.82
			c0.863,0,2.625-0.344,2.625-0.767c0-0.421-2.33-0.765-3.191-0.765H63.277h-0.291H22.264c-0.386-0.058-2.014-0.084-2.564-0.063
			c-0.436,0.009-0.863,0.04-1.248,0.089C17.635,60.181,16.56,60.296,15.469,60.606z"/>
		<path fill="#D0D1D3" d="M15.49,60.619c-1.445,0.411-2.396,1.036-2.943,1.624c-0.545,0.59-0.688,1.142-0.512,1.402
			c0.098,0.146,0.22,0.201,0.467,0.19c0.399-0.018,0.885-0.165,1.537-0.343c0.873-0.24,1.668-0.497,2.224-0.748
			c0.276-0.047,0.581-0.101,0.899-0.161c0.352-0.13,1.34-0.257,1.703-0.36c0.748-0.213,3.488-0.461,3.965-0.569h38.92h1.847h41.757
			c0.862,0,2.623-0.334,2.623-0.744c0-0.409-2.328-0.742-3.188-0.742H63.211h-0.303H22.262c-0.37-0.056-2.037-0.081-2.563-0.062
			c-0.437,0.009-0.864,0.04-1.245,0.089C17.65,60.199,16.578,60.31,15.49,60.619z"/>
		<path fill="#D1D2D4" d="M15.512,60.632c-1.412,0.401-2.342,1.013-2.875,1.588c-0.533,0.576-0.672,1.114-0.5,1.369
			c0.1,0.146,0.219,0.198,0.473,0.184c0.404-0.023,0.893-0.175,1.541-0.352c0.881-0.243,1.678-0.498,2.221-0.748
			c0.275-0.043,0.58-0.094,0.898-0.15c0.337-0.125,1.34-0.247,1.688-0.346c0.716-0.203,3.498-0.44,3.953-0.545h38.824h1.829h41.692
			c0.861,0,2.621-0.323,2.621-0.722c0-0.396-2.326-0.72-3.187-0.72H63.146h-0.317H22.26c-0.354-0.054-2.061-0.078-2.564-0.06
			c-0.438,0.009-0.863,0.04-1.239,0.089C17.666,60.218,16.598,60.324,15.512,60.632z"/>
		<path fill="#D1D3D4" d="M15.533,60.646c-1.379,0.392-2.286,0.988-2.808,1.55c-0.521,0.562-0.654,1.088-0.487,1.337
			c0.099,0.146,0.219,0.196,0.477,0.179c0.41-0.028,0.902-0.185,1.55-0.362c0.886-0.243,1.683-0.5,2.215-0.747
			c0.274-0.04,0.579-0.087,0.897-0.142c0.321-0.119,1.342-0.235,1.674-0.33c0.683-0.193,3.506-0.42,3.941-0.52h38.725h1.813h41.628
			c0.859,0,2.618-0.314,2.618-0.7c0-0.385-2.323-0.698-3.183-0.698H63.081h-0.329H22.258c-0.337-0.051-2.084-0.074-2.564-0.056
			c-0.438,0.008-0.863,0.038-1.234,0.087C17.682,60.237,16.615,60.339,15.533,60.646z"/>
		<path fill="#D2D4D5" d="M15.555,60.658c-1.346,0.382-2.23,0.965-2.74,1.513c-0.508,0.549-0.638,1.062-0.475,1.305
			c0.098,0.146,0.219,0.194,0.48,0.173c0.416-0.034,0.91-0.196,1.557-0.373c0.893-0.247,1.691-0.5,2.211-0.745
			c0.273-0.037,0.578-0.08,0.896-0.133c0.307-0.113,1.342-0.225,1.658-0.313c0.65-0.185,3.516-0.401,3.93-0.495h38.629h1.796h41.563
			c0.859,0,2.616-0.305,2.616-0.679c0-0.372-2.322-0.676-3.181-0.676h-41.48h-0.344H22.257c-0.321-0.049-2.108-0.07-2.566-0.054
			c-0.438,0.008-0.862,0.039-1.229,0.087C17.697,60.256,16.635,60.353,15.555,60.658z"/>
		<path fill="#D3D5D6" d="M15.576,60.671c-1.312,0.373-2.176,0.941-2.672,1.477s-0.624,1.036-0.465,1.272
			c0.098,0.146,0.219,0.191,0.486,0.167c0.422-0.039,0.92-0.208,1.563-0.384c0.898-0.249,1.7-0.501,2.208-0.744
			c0.271-0.033,0.576-0.074,0.896-0.124c0.291-0.107,1.343-0.213,1.642-0.298c0.619-0.176,3.525-0.38,3.919-0.47h38.531h1.779
			h41.498c0.86,0,2.615-0.295,2.615-0.657c0-0.36-2.321-0.654-3.179-0.654H62.951h-0.358H22.255
			c-0.306-0.046-2.132-0.066-2.566-0.051c-0.438,0.008-0.86,0.039-1.224,0.087C17.713,60.274,16.654,60.366,15.576,60.671z"/>
		<path fill="#D4D6D7" d="M15.598,60.685c-1.279,0.363-2.12,0.917-2.604,1.438s-0.607,1.009-0.453,1.24
			c0.098,0.146,0.219,0.189,0.49,0.161c0.427-0.044,0.93-0.218,1.57-0.394c0.906-0.249,1.707-0.503,2.203-0.743
			c0.271-0.03,0.576-0.068,0.896-0.115c0.275-0.103,1.342-0.201,1.627-0.282c0.585-0.166,3.533-0.36,3.906-0.446h38.434h1.762
			h41.435c0.858,0,2.612-0.284,2.612-0.634c0-0.349-2.318-0.632-3.176-0.632H62.885h-0.371h-40.26
			c-0.29-0.044-2.156-0.063-2.568-0.049c-0.438,0.008-0.859,0.038-1.219,0.086C17.729,60.293,16.674,60.38,15.598,60.685z"/>
		<path fill="#D5D7D8" d="M15.621,60.697c-1.246,0.354-2.066,0.894-2.538,1.401c-0.47,0.508-0.592,0.983-0.44,1.208
			c0.098,0.145,0.219,0.187,0.495,0.155c0.431-0.05,0.938-0.229,1.576-0.404c0.911-0.253,1.716-0.502,2.2-0.742
			c0.27-0.026,0.574-0.061,0.895-0.105c0.26-0.097,1.344-0.19,1.612-0.267c0.553-0.157,3.541-0.341,3.894-0.421h38.338h1.744h41.369
			c0.859,0,2.611-0.275,2.611-0.612c0-0.336-2.316-0.61-3.174-0.61H62.82h-0.385H22.252c-0.273-0.041-2.18-0.06-2.568-0.045
			c-0.439,0.006-0.859,0.037-1.213,0.086C17.744,60.312,16.691,60.394,15.621,60.697z"/>
		<path fill="#D6D8D9" d="M15.643,60.711c-1.213,0.345-2.012,0.869-2.471,1.363c-0.457,0.495-0.576,0.957-0.428,1.177
			c0.098,0.145,0.218,0.184,0.498,0.148c0.439-0.056,0.949-0.238,1.585-0.413c0.917-0.256,1.722-0.505,2.195-0.741
			c0.269-0.024,0.573-0.056,0.894-0.098c0.246-0.091,1.344-0.178,1.598-0.25c0.52-0.147,3.55-0.321,3.881-0.396h38.24h1.729h41.305
			c0.859,0,2.609-0.266,2.609-0.591c0-0.323-2.315-0.589-3.171-0.589H62.755h-0.398H22.25c-0.258-0.038-2.203-0.056-2.568-0.042
			c-0.439,0.006-0.859,0.037-1.209,0.085C17.76,60.331,16.711,60.407,15.643,60.711z"/>
		<path fill="#D7D9DA" d="M15.664,60.724c-1.18,0.336-1.956,0.846-2.402,1.326c-0.445,0.481-0.561,0.932-0.417,1.145
			c0.098,0.144,0.218,0.182,0.504,0.143c0.444-0.061,0.958-0.249,1.591-0.424c0.924-0.257,1.73-0.505,2.191-0.739
			c0.268-0.021,0.57-0.049,0.894-0.089c0.229-0.085,1.345-0.168,1.581-0.234c0.488-0.139,3.56-0.301,3.871-0.371h38.143h1.711h41.24
			c0.857,0,2.607-0.256,2.607-0.569c0-0.312-2.313-0.565-3.169-0.565H62.689h-0.412H22.248c-0.241-0.037-2.227-0.053-2.569-0.041
			c-0.439,0.006-0.857,0.037-1.203,0.084C17.775,60.349,16.729,60.421,15.664,60.724z"/>
		<path fill="#D8DADB" d="M15.686,60.737c-1.146,0.325-1.902,0.821-2.334,1.289c-0.434,0.467-0.546,0.905-0.406,1.111
			c0.097,0.144,0.218,0.18,0.51,0.137c0.449-0.066,0.967-0.26,1.597-0.434c0.931-0.26,1.737-0.507,2.188-0.738
			c0.266-0.018,0.569-0.043,0.892-0.08c0.215-0.079,1.345-0.156,1.566-0.219c0.455-0.129,3.567-0.28,3.858-0.347h38.045h1.695
			h41.176c0.856,0,2.605-0.246,2.605-0.547c0-0.3-2.312-0.544-3.167-0.544H62.625h-0.427H22.246c-0.225-0.034-2.25-0.049-2.57-0.037
			c-0.439,0.005-0.857,0.036-1.197,0.084C17.791,60.368,16.748,60.436,15.686,60.737z"/>
		<path fill="#D9DBDC" d="M15.708,60.75c-1.114,0.316-1.847,0.798-2.268,1.252s-0.528,0.878-0.394,1.079
			c0.097,0.144,0.219,0.178,0.514,0.132c0.456-0.071,0.977-0.271,1.604-0.444c0.938-0.262,1.746-0.508,2.185-0.737
			c0.265-0.015,0.569-0.037,0.892-0.071c0.199-0.073,1.346-0.145,1.551-0.203c0.423-0.12,3.576-0.261,3.847-0.322h37.948h1.678
			h41.111c0.855,0,2.603-0.235,2.603-0.524c0-0.287-2.31-0.522-3.164-0.522H62.559H62.12H22.245
			c-0.21-0.031-2.273-0.045-2.571-0.034c-0.44,0.005-0.855,0.035-1.192,0.083C17.807,60.387,16.768,60.449,15.708,60.75z"/>
		<path fill="#DADCDD" d="M15.729,60.763c-1.08,0.307-1.792,0.775-2.2,1.215c-0.407,0.441-0.513,0.853-0.381,1.048
			c0.096,0.143,0.217,0.175,0.518,0.125c0.462-0.076,0.986-0.281,1.611-0.454c0.943-0.264,1.753-0.509,2.18-0.736
			c0.264-0.012,0.567-0.03,0.891-0.062c0.184-0.067,1.347-0.134,1.536-0.188c0.39-0.111,3.585-0.24,3.835-0.297H61.57h1.66h41.047
			c0.855,0,2.601-0.227,2.601-0.503c0-0.274-2.308-0.5-3.162-0.5H62.494h-0.453H22.243c-0.194-0.029-2.297-0.042-2.571-0.032
			c-0.441,0.005-0.855,0.035-1.188,0.083C17.822,60.405,16.785,60.463,15.729,60.763z"/>
		<path fill="#DBDDDE" d="M15.752,60.776c-1.048,0.298-1.738,0.75-2.133,1.177s-0.497,0.826-0.37,1.016
			c0.097,0.144,0.216,0.173,0.522,0.119c0.468-0.082,0.996-0.291,1.618-0.464c0.95-0.265,1.761-0.51,2.176-0.736
			c0.263-0.007,0.566-0.023,0.891-0.052c0.169-0.062,1.347-0.124,1.521-0.173c0.357-0.102,3.594-0.221,3.822-0.272h37.754h1.645
			h40.981c0.855,0,2.6-0.216,2.6-0.48c0-0.263-2.307-0.479-3.159-0.479h-41.19h-0.467H22.241c-0.177-0.026-2.32-0.038-2.573-0.029
			c-0.439,0.005-0.854,0.035-1.181,0.083C17.837,60.424,16.805,60.477,15.752,60.776z"/>
		<path fill="#DCDDDF" d="M15.773,60.789c-1.015,0.288-1.682,0.728-2.065,1.141c-0.383,0.413-0.481,0.8-0.358,0.983
			c0.097,0.142,0.217,0.169,0.527,0.112c0.473-0.087,1.006-0.301,1.625-0.474c0.956-0.268,1.769-0.512,2.172-0.734
			c0.262-0.005,0.564-0.018,0.891-0.044c0.152-0.057,1.347-0.112,1.504-0.157c0.326-0.092,3.604-0.2,3.811-0.247h37.658h1.627
			h40.918c0.854,0,2.596-0.206,2.596-0.459c0-0.251-2.305-0.456-3.156-0.456H62.363h-0.48H22.239
			c-0.161-0.024-2.344-0.035-2.572-0.027c-0.441,0.004-0.854,0.035-1.177,0.083C17.852,60.442,16.824,60.491,15.773,60.789z"/>
		<path fill="#DDDEE0" d="M15.795,60.802c-0.98,0.279-1.627,0.703-1.997,1.104s-0.467,0.774-0.347,0.951
			c0.096,0.142,0.219,0.168,0.531,0.107c0.479-0.092,1.016-0.313,1.632-0.485c0.963-0.27,1.776-0.511,2.168-0.733
			c0.261-0.001,0.563-0.011,0.89-0.034c0.138-0.051,1.348-0.101,1.49-0.141c0.292-0.083,3.611-0.181,3.798-0.224h37.561h1.61h40.852
			c0.854,0,2.596-0.196,2.596-0.437c0-0.238-2.302-0.434-3.154-0.434H62.298h-0.494H22.238c-0.145-0.022-2.367-0.032-2.574-0.024
			c-0.441,0.004-0.852,0.034-1.172,0.081C17.867,60.461,16.843,60.505,15.795,60.802z"/>
		<path fill="#DEDFE1" d="M15.816,60.815c-0.947,0.27-1.571,0.68-1.93,1.065c-0.357,0.387-0.449,0.747-0.334,0.919
			c0.096,0.142,0.218,0.166,0.536,0.102c0.484-0.098,1.024-0.324,1.638-0.495c0.969-0.272,1.785-0.513,2.165-0.732
			c0.258,0.003,0.562-0.004,0.888-0.025c0.123-0.045,1.349-0.089,1.475-0.125c0.26-0.074,3.623-0.16,3.788-0.198h37.463h1.593
			h40.787c0.854,0,2.594-0.187,2.594-0.415c0-0.227-2.301-0.412-3.152-0.412H62.232h-0.506h-39.49
			c-0.129-0.02-2.391-0.028-2.574-0.021c-0.443,0.003-0.852,0.033-1.167,0.081C17.884,60.479,16.862,60.519,15.816,60.815z"/>
		<path fill="#DFE0E1" d="M15.838,60.828c-0.914,0.261-1.516,0.656-1.861,1.028c-0.345,0.373-0.435,0.722-0.323,0.888
			c0.095,0.141,0.218,0.163,0.541,0.095c0.491-0.104,1.034-0.334,1.645-0.505c0.976-0.274,1.793-0.514,2.161-0.731
			c0.257,0.006,0.562,0.002,0.888-0.017c0.107-0.04,1.349-0.078,1.459-0.109c0.228-0.065,3.631-0.141,3.776-0.174h37.364h1.577
			h40.723c0.854,0,2.591-0.177,2.591-0.393c0-0.214-2.299-0.39-3.148-0.39H62.168h-0.521H22.234
			c-0.113-0.018-2.414-0.025-2.574-0.02c-0.443,0.003-0.852,0.033-1.162,0.081C17.898,60.499,16.881,60.533,15.838,60.828z"/>
		<path fill="#E0E1E2" d="M15.86,60.842c-0.881,0.25-1.463,0.631-1.795,0.99c-0.333,0.359-0.418,0.696-0.311,0.855
			c0.095,0.141,0.217,0.16,0.545,0.089c0.497-0.108,1.044-0.345,1.651-0.515c0.982-0.277,1.801-0.516,2.157-0.73
			c0.256,0.009,0.56,0.008,0.887-0.008c0.092-0.034,1.35-0.067,1.444-0.094c0.195-0.055,3.64-0.12,3.764-0.148h37.269h1.56h40.658
			c0.853,0,2.589-0.167,2.589-0.371c0-0.202-2.296-0.368-3.146-0.368h-41.03h-0.533H22.233c-0.097-0.015-2.439-0.021-2.577-0.016
			c-0.441,0.002-0.85,0.032-1.154,0.08C17.915,60.518,16.898,60.547,15.86,60.842z"/>
		<path fill="#E1E2E3" d="M15.881,60.854c-0.848,0.241-1.405,0.608-1.726,0.954c-0.319,0.346-0.403,0.669-0.3,0.822
			c0.095,0.141,0.218,0.158,0.551,0.083c0.502-0.113,1.052-0.354,1.658-0.524c0.987-0.279,1.808-0.517,2.152-0.729
			c0.256,0.012,0.56,0.015,0.885,0.002c0.078-0.029,1.352-0.057,1.43-0.079c0.163-0.046,3.649-0.1,3.752-0.124h37.172h1.543h40.594
			c0.852,0,2.587-0.157,2.587-0.349c0-0.189-2.295-0.347-3.145-0.347H62.037h-0.548H22.23c-0.08-0.012-2.462-0.018-2.576-0.013
			c-0.442,0.002-0.849,0.032-1.152,0.079C17.931,60.536,16.918,60.561,15.881,60.854z"/>
		<path fill="#E2E3E4" d="M15.904,60.867c-0.815,0.232-1.352,0.585-1.659,0.917c-0.308,0.333-0.388,0.643-0.288,0.791
			c0.094,0.14,0.217,0.155,0.555,0.076c0.508-0.118,1.062-0.364,1.666-0.534c0.994-0.28,1.814-0.519,2.147-0.729
			c0.255,0.016,0.559,0.021,0.886,0.01c0.061-0.022,1.35-0.045,1.413-0.062c0.13-0.036,3.657-0.08,3.74-0.099h37.074h1.525h40.53
			c0.851,0,2.585-0.147,2.585-0.327c0-0.178-2.294-0.324-3.144-0.324H61.972H61.41H22.229c-0.063-0.01-2.486-0.014-2.577-0.011
			c-0.443,0.002-0.848,0.032-1.146,0.079C17.946,60.556,16.938,60.574,15.904,60.867z"/>
		<path fill="#E3E4E5" d="M15.926,60.881c-0.782,0.222-1.297,0.561-1.593,0.879c-0.294,0.318-0.37,0.617-0.274,0.759
			c0.094,0.14,0.217,0.153,0.56,0.07c0.514-0.124,1.07-0.376,1.672-0.545c1-0.283,1.822-0.518,2.144-0.727
			c0.254,0.019,0.557,0.027,0.885,0.02c0.046-0.018,1.352-0.033,1.398-0.047c0.098-0.028,3.666-0.061,3.729-0.074h36.977h1.51
			h40.465c0.85,0,2.583-0.138,2.583-0.306c0-0.165-2.292-0.302-3.141-0.302H61.907h-0.576H22.228
			c-0.048-0.008-2.509-0.011-2.578-0.008c-0.443,0.001-0.847,0.031-1.14,0.078C17.962,60.574,16.956,60.588,15.926,60.881z"/>
		<path fill="#E4E5E6" d="M15.947,60.894c-0.748,0.214-1.241,0.537-1.524,0.843c-0.282,0.305-0.354,0.59-0.264,0.726
			c0.093,0.14,0.218,0.151,0.563,0.065c0.521-0.129,1.081-0.387,1.68-0.556c1.006-0.285,1.83-0.519,2.14-0.726
			c0.252,0.021,0.556,0.033,0.885,0.028c0.03-0.012,1.352-0.022,1.384-0.031c0.064-0.019,3.674-0.041,3.716-0.05h36.88h1.491h40.4
			c0.851,0,2.581-0.128,2.581-0.283c0-0.153-2.289-0.28-3.137-0.28h-40.9h-0.59H22.226c-0.032-0.005-2.532-0.007-2.578-0.005
			c-0.444,0-0.847,0.03-1.135,0.077C17.978,60.593,16.975,60.603,15.947,60.894z"/>
		<path fill="#E5E6E7" d="M15.969,60.907c-0.717,0.203-1.187,0.513-1.457,0.805c-0.27,0.291-0.338,0.564-0.251,0.694
			c0.094,0.139,0.218,0.148,0.568,0.059c0.525-0.135,1.089-0.397,1.685-0.565c1.015-0.288,1.838-0.521,2.137-0.725
			c0.251,0.025,0.555,0.04,0.884,0.037c0.015-0.006,1.353-0.011,1.368-0.016c0.033-0.01,3.684-0.02,3.704-0.024h36.782h1.477h40.336
			c0.848,0,2.578-0.119,2.578-0.262c0-0.142-2.287-0.258-3.135-0.258H61.776h-0.603H22.225c-0.016-0.003-2.557-0.004-2.58-0.003
			c-0.443,0-0.846,0.03-1.131,0.077C17.993,60.611,16.994,60.616,15.969,60.907z"/>
		<path fill="#E6E7E8" d="M102.547,60.674H61.095H19.643c-0.444,0-0.845,0.03-1.125,0.077c-0.509-0.121-1.505-0.121-2.526,0.169
			c-0.683,0.194-1.132,0.489-1.39,0.768c-0.257,0.278-0.323,0.538-0.24,0.662c0.094,0.139,0.218,0.147,0.572,0.053
			c0.533-0.138,1.101-0.407,1.693-0.575c1.02-0.29,1.846-0.521,2.133-0.724c0.249,0.028,0.553,0.046,0.883,0.046h41.73h41.729
			c0.85,0,2.578-0.108,2.578-0.239C105.68,60.781,103.394,60.674,102.547,60.674z"/>
	</g>
	<g>
		<path fill="#FFFFFF" d="M49.673,92.391c-2.049,0-5.402,0-7.451,0H21.814c-2.049,0-3.725,1.677-3.725,3.726v13.167
			c0,2.049,1.676,3.726,3.725,3.726h85.528c2.049,0,3.726-1.677,3.726-3.726V96.116c0-2.049-1.677-3.726-3.726-3.726h-20.02
			c-2.049,0-5.402,0-7.451,0H49.673z"/>
		<path fill="none" stroke="#000000" stroke-width="0.9314" stroke-miterlimit="10" d="M49.673,92.391c-2.049,0-5.402,0-7.451,0
			H21.814c-2.049,0-3.725,1.677-3.725,3.726v13.167c0,2.049,1.676,3.726,3.725,3.726h85.528c2.049,0,3.726-1.677,3.726-3.726V96.116
			c0-2.049-1.677-3.726-3.726-3.726h-20.02c-2.049,0-5.402,0-7.451,0H49.673z"/>
	</g>
	<rect x="37.888" y="96.193" fill="none" width="53.342" height="16.315"/>
	<text transform="matrix(1 0 0 1 47.4404 107.4873)" font-family="'Tahoma'" font-size="14.8618">0.0 V</text>
	<text transform="matrix(1 0 0 1 29.9795 82.126)" fill="#FFFFFF" font-family="'Tahoma'" font-size="12.7387">Equipotential</text>
	<circle opacity="0.2" fill="#FFFFFF" cx="66.06" cy="28.304" r="18.579"/>
	<circle fill="none" stroke="#FFFFFF" stroke-width="2" stroke-miterlimit="10" cx="66.446" cy="28.304" r="18.579"/>
	<line fill="none" stroke="#FFFFFF" stroke-miterlimit="10" x1="66.445" y1="9.725" x2="66.445" y2="57.374"/>
	<line fill="none" stroke="#FFFFFF" stroke-miterlimit="10" x1="47.867" y1="28.304" x2="85.025" y2="28.304"/>
	<rect x="61.575" y="47.942" fill="#6D6E71" width="9.743" height="9.432"/>
	<g>
		<linearGradient id="SVGID_2_" gradientUnits="userSpaceOnUse" x1="91.4297" y1="122.04" x2="91.4297" y2="153.9805">
			<stop  offset="0.0051" style="stop-color:#F1F1F2"/>
			<stop  offset="0.1221" style="stop-color:#E6E7E8"/>
			<stop  offset="0.8163" style="stop-color:#E6E7E8"/>
			<stop  offset="0.9306" style="stop-color:#E6E7E8"/>
			<stop  offset="0.9396" style="stop-color:#E1E2E3"/>
			<stop  offset="0.9506" style="stop-color:#D2D3D4"/>
			<stop  offset="0.9627" style="stop-color:#B9BABB"/>
			<stop  offset="0.9756" style="stop-color:#969798"/>
			<stop  offset="0.989" style="stop-color:#6A6A6B"/>
			<stop  offset="1" style="stop-color:#404041"/>
		</linearGradient>
		<path fill="url(#SVGID_2_)" d="M112.145,148.742c0,2.881-2.357,5.238-5.238,5.238H75.954c-2.881,0-5.238-2.357-5.238-5.238
			v-21.464c0-2.881,2.357-5.238,5.238-5.238h30.952c2.881,0,5.238,2.357,5.238,5.238V148.742z"/>
		<path fill="none" stroke="#231F20" stroke-width="0.25" stroke-miterlimit="10" d="M112.145,148.742
			c0,2.881-2.357,5.238-5.238,5.238H75.954c-2.881,0-5.238-2.357-5.238-5.238v-21.464c0-2.881,2.357-5.238,5.238-5.238h30.952
			c2.881,0,5.238,2.357,5.238,5.238V148.742z"/>
	</g>
	<g opacity="0.5">
		<linearGradient id="SVGID_4_" gradientUnits="userSpaceOnUse" x1="70.7158" y1="138.0107" x2="112.1445" y2="138.0107">
			<stop  offset="0.0051" style="stop-color:#F1F1F2"/>
			<stop  offset="0.1221" style="stop-color:#E6E7E8"/>
			<stop  offset="0.8163" style="stop-color:#E6E7E8"/>
			<stop  offset="0.9306" style="stop-color:#E6E7E8"/>
			<stop  offset="0.9396" style="stop-color:#E1E2E3"/>
			<stop  offset="0.9506" style="stop-color:#D2D3D4"/>
			<stop  offset="0.9627" style="stop-color:#B9BABB"/>
			<stop  offset="0.9756" style="stop-color:#969798"/>
			<stop  offset="0.989" style="stop-color:#6A6A6B"/>
			<stop  offset="1" style="stop-color:#404041"/>
		</linearGradient>
		<path fill="url(#SVGID_4_)" d="M112.145,148.742c0,2.881-2.357,5.238-5.238,5.238H75.954c-2.881,0-5.238-2.357-5.238-5.238
			v-21.463c0-2.881,2.357-5.238,5.238-5.238h30.952c2.881,0,5.238,2.357,5.238,5.238V148.742z"/>
	</g>
	<linearGradient id="SVGID_6_" gradientUnits="userSpaceOnUse" x1="101.8691" y1="131.1426" x2="101.9648" y2="131.1426">
		<stop  offset="0" style="stop-color:#FF8C90"/>
		<stop  offset="1" style="stop-color:#ED1C24"/>
	</linearGradient>
	<path fill="url(#SVGID_6_)" d="M101.951,131.056h-0.082l0.096,0.174C101.958,131.173,101.956,131.113,101.951,131.056z"/>
	<g id="XMLID_12_">
		<g>
			<path fill="#F4ABAA" d="M103.724,131.563c-0.3,0.461-0.815,0.915-0.815,0.915l-2.355,2.275c-0.183-0.262-1.892-2.708-2.801-3.621
				c-0.96-0.957-3.616-2.74-3.616-2.74l-0.025-0.026l2.494-2.41c0,0,0.155-0.248,0.857-0.454c0.614-0.188,2.295,0.515,3.998,2.195
				C103.16,129.375,104.071,131.02,103.724,131.563z"/>
			<path fill="#D1D3D4" d="M100.553,134.754l-1.857,1.795l-0.001-0.002c0,0-1.9-2.746-2.859-3.709
				c-0.879-0.868-3.166-2.433-3.559-2.7l1.834-1.771l0.025,0.026c0,0,2.656,1.783,3.616,2.74
				C98.661,132.046,100.37,134.492,100.553,134.754z"/>
			<path fill="#FDA720" d="M82.264,140.78l0.589-1.535l9.424-9.107c0.393,0.268,2.68,1.832,3.559,2.7
				c0.959,0.963,2.859,3.709,2.859,3.709l0.001,0.002l-9.543,9.219l-1.114,0.396l-0.157-1.535l-2.753-0.104l-0.488-3.116
				l-2.237,0.631L82.264,140.78z"/>
			<polygon fill="#E1B89A" points="88.038,146.163 82.729,148.052 80.376,145.7 80.375,145.7 82.264,140.78 82.402,142.039 
				84.64,141.408 85.128,144.524 87.881,144.628 			"/>
			<polygon fill="#231F20" points="78.957,149.393 80.375,145.7 80.376,145.7 82.729,148.052 			"/>
		</g>
		<g>
			<path fill="none" stroke="#231F20" stroke-width="0.25" stroke-miterlimit="10" d="M100.553,134.754l2.355-2.275
				c0,0,0.516-0.454,0.815-0.915c0.348-0.544-0.563-2.188-2.264-3.866c-1.703-1.681-3.384-2.383-3.998-2.195
				c-0.702,0.206-0.857,0.454-0.857,0.454l-2.494,2.41l-1.834,1.771l-9.424,9.107l-0.589,1.535l-1.889,4.92l-1.418,3.692
				l3.772-1.341l5.309-1.889l1.114-0.396l9.543-9.219L100.553,134.754z"/>
			<path fill="none" stroke="#231F20" stroke-width="0.25" stroke-miterlimit="10" d="M94.136,128.393c0,0,2.656,1.783,3.616,2.74
				c0.909,0.913,2.618,3.359,2.801,3.621c0.01,0.016,0.016,0.022,0.016,0.022"/>
			<path fill="none" stroke="#231F20" stroke-width="0.25" stroke-miterlimit="10" d="M92.218,130.099c0,0,0.021,0.014,0.059,0.039
				c0.393,0.268,2.68,1.832,3.559,2.7c0.959,0.963,2.859,3.709,2.859,3.709"/>
			<polyline fill="none" stroke="#231F20" stroke-width="0.25" stroke-miterlimit="10" points="88.038,146.163 87.881,144.628 
				85.128,144.524 84.64,141.408 82.402,142.039 82.264,140.78 			"/>
			<polyline fill="none" stroke="#231F20" stroke-width="0.25" stroke-miterlimit="10" points="80.376,145.7 82.729,148.052 
				82.73,148.053 			"/>
		</g>
	</g>
	<g>
		<linearGradient id="SVGID_8_" gradientUnits="userSpaceOnUse" x1="39.1016" y1="122.04" x2="39.1016" y2="153.9805">
			<stop  offset="0.0051" style="stop-color:#F1F1F2"/>
			<stop  offset="0.1221" style="stop-color:#E6E7E8"/>
			<stop  offset="0.8163" style="stop-color:#E6E7E8"/>
			<stop  offset="0.9306" style="stop-color:#E6E7E8"/>
			<stop  offset="0.9396" style="stop-color:#E1E2E3"/>
			<stop  offset="0.9506" style="stop-color:#D2D3D4"/>
			<stop  offset="0.9627" style="stop-color:#B9BABB"/>
			<stop  offset="0.9756" style="stop-color:#969798"/>
			<stop  offset="0.989" style="stop-color:#6A6A6B"/>
			<stop  offset="1" style="stop-color:#404041"/>
		</linearGradient>
		<path fill="url(#SVGID_8_)" d="M59.816,148.742c0,2.881-2.357,5.238-5.238,5.238H23.627c-2.882,0-5.239-2.357-5.239-5.238v-21.464
			c0-2.881,2.357-5.238,5.239-5.238h30.951c2.881,0,5.238,2.357,5.238,5.238V148.742z"/>
		<path fill="none" stroke="#231F20" stroke-width="0.25" stroke-miterlimit="10" d="M59.816,148.742
			c0,2.881-2.357,5.238-5.238,5.238H23.627c-2.882,0-5.239-2.357-5.239-5.238v-21.464c0-2.881,2.357-5.238,5.239-5.238h30.951
			c2.881,0,5.238,2.357,5.238,5.238V148.742z"/>
	</g>
	<g opacity="0.5">
		<linearGradient id="SVGID_10_" gradientUnits="userSpaceOnUse" x1="18.3877" y1="138.0107" x2="59.8164" y2="138.0107">
			<stop  offset="0.0051" style="stop-color:#F1F1F2"/>
			<stop  offset="0.1221" style="stop-color:#E6E7E8"/>
			<stop  offset="0.8163" style="stop-color:#E6E7E8"/>
			<stop  offset="0.9306" style="stop-color:#E6E7E8"/>
			<stop  offset="0.9396" style="stop-color:#E1E2E3"/>
			<stop  offset="0.9506" style="stop-color:#D2D3D4"/>
			<stop  offset="0.9627" style="stop-color:#B9BABB"/>
			<stop  offset="0.9756" style="stop-color:#969798"/>
			<stop  offset="0.989" style="stop-color:#6A6A6B"/>
			<stop  offset="1" style="stop-color:#404041"/>
		</linearGradient>
		<path fill="url(#SVGID_10_)" d="M59.816,148.742c0,2.881-2.357,5.238-5.238,5.238H23.627c-2.882,0-5.239-2.357-5.239-5.238
			v-21.463c0-2.881,2.357-5.238,5.239-5.238h30.951c2.881,0,5.238,2.357,5.238,5.238V148.742z"/>
	</g>
	<linearGradient id="SVGID_11_" gradientUnits="userSpaceOnUse" x1="53.0947" y1="138.0801" x2="39.9297" y2="138.0801">
		<stop  offset="0" style="stop-color:#F4ABAA"/>
		<stop  offset="0.2769" style="stop-color:#F1A9A8"/>
		<stop  offset="0.4948" style="stop-color:#E7A2A1"/>
		<stop  offset="0.6926" style="stop-color:#D69695"/>
		<stop  offset="0.8774" style="stop-color:#BF8685"/>
		<stop  offset="1" style="stop-color:#AB7877"/>
	</linearGradient>
	<path fill="url(#SVGID_11_)" stroke="#231F20" stroke-width="0.4712" stroke-linejoin="round" stroke-miterlimit="10" d="
		M53.095,128.271L42.01,140.416c-0.102,0.157-0.252,0.87-0.355,1.245c-0.182,0.658-0.406,1.515-0.586,2.179
		c-0.486,1.773-0.602,2.289-1.139,4.051c3.355-3.659,6.07-6.274,9.43-9.935c1.582-1.723,2.482-3.007,2.904-5.272
		C52.538,131.213,52.812,129.741,53.095,128.271"/>
	<linearGradient id="SVGID_12_" gradientUnits="userSpaceOnUse" x1="26.4951" y1="145.0049" x2="42.0098" y2="145.0049">
		<stop  offset="0" style="stop-color:#F4ABAA"/>
		<stop  offset="0.2769" style="stop-color:#F1A9A8"/>
		<stop  offset="0.4948" style="stop-color:#E7A2A1"/>
		<stop  offset="0.6926" style="stop-color:#D69695"/>
		<stop  offset="0.8774" style="stop-color:#BF8685"/>
		<stop  offset="1" style="stop-color:#AB7877"/>
	</linearGradient>
	<path fill="url(#SVGID_12_)" stroke="#231F20" stroke-width="0.4712" stroke-linejoin="round" stroke-miterlimit="10" d="
		M28.507,140.416c-0.837,2.135-1.649,4.301-1.973,6.566c-0.229,1.614,0.558,2.181,2.107,2.36c2.235,0.26,4.575,0.328,6.818,0.16
		c2.628-0.196,4.124-0.127,5.007-2.808c0.545-1.658,0.688-2.149,0.907-3.313c0.253-1.352,0.235-2.098,0.636-2.966"/>
	<linearGradient id="SVGID_14_" gradientUnits="userSpaceOnUse" x1="28.5068" y1="134.3408" x2="53.0947" y2="134.3408">
		<stop  offset="0" style="stop-color:#F4ABAA"/>
		<stop  offset="0.2769" style="stop-color:#F1A9A8"/>
		<stop  offset="0.4948" style="stop-color:#E7A2A1"/>
		<stop  offset="0.6926" style="stop-color:#D69695"/>
		<stop  offset="0.8774" style="stop-color:#BF8685"/>
		<stop  offset="1" style="stop-color:#AB7877"/>
	</linearGradient>
	<path fill="url(#SVGID_14_)" stroke="#231F20" stroke-width="0.4712" stroke-linejoin="round" stroke-miterlimit="10" d="
		M40.618,128.549c-0.487,0.188-0.487,0.188-1.171,0.766c-1.033,0.874-2.156,2.161-3.096,3.144c-2.098,2.196-4.273,4.331-6.409,6.496
		c-0.192,0.196-0.489,0.472-1.436,1.462H42.01l11.085-12.146c-1.843,0-3.684-0.005-5.526-0.002c-1.378,0.001-2.759,0.016-4.14,0.002
		C42.29,128.263,41.414,128.239,40.618,128.549z"/>
	<g>
		<g>
			<linearGradient id="SVGID_16_" gradientUnits="userSpaceOnUse" x1="65.5283" y1="166.5811" x2="65.5283" y2="169.2227">
				<stop  offset="0.0099" style="stop-color:#333333"/>
				<stop  offset="0.0985" style="stop-color:#7E7E7E"/>
				<stop  offset="0.2414" style="stop-color:#FFFFFF"/>
				<stop  offset="0.4039" style="stop-color:#7E7E7E"/>
				<stop  offset="0.8867" style="stop-color:#000000"/>
			</linearGradient>
			<path fill="url(#SVGID_16_)" d="M77.492,167.902c0,0.729-0.591,1.32-1.321,1.32H54.885c-0.729,0-1.32-0.591-1.32-1.32l0,0
				c0-0.73,0.592-1.321,1.32-1.321h21.286C76.901,166.581,77.492,167.172,77.492,167.902L77.492,167.902z"/>
		</g>
		<g>
			<linearGradient id="SVGID_18_" gradientUnits="userSpaceOnUse" x1="65.5283" y1="172.7861" x2="65.5283" y2="175.4287">
				<stop  offset="0.0099" style="stop-color:#333333"/>
				<stop  offset="0.0985" style="stop-color:#7E7E7E"/>
				<stop  offset="0.2414" style="stop-color:#FFFFFF"/>
				<stop  offset="0.4039" style="stop-color:#7E7E7E"/>
				<stop  offset="0.8867" style="stop-color:#000000"/>
			</linearGradient>
			<path fill="url(#SVGID_18_)" d="M77.492,174.108c0,0.729-0.591,1.32-1.321,1.32H54.885c-0.729,0-1.32-0.591-1.32-1.32l0,0
				c0-0.73,0.592-1.322,1.32-1.322h21.286C76.901,172.786,77.492,173.378,77.492,174.108L77.492,174.108z"/>
		</g>
		<g>
			<linearGradient id="SVGID_20_" gradientUnits="userSpaceOnUse" x1="65.5283" y1="160.374" x2="65.5283" y2="163.0176">
				<stop  offset="0.0099" style="stop-color:#333333"/>
				<stop  offset="0.0985" style="stop-color:#7E7E7E"/>
				<stop  offset="0.2414" style="stop-color:#FFFFFF"/>
				<stop  offset="0.4039" style="stop-color:#7E7E7E"/>
				<stop  offset="0.8867" style="stop-color:#000000"/>
			</linearGradient>
			<path fill="url(#SVGID_20_)" d="M77.492,161.696c0,0.729-0.591,1.321-1.321,1.321H54.885c-0.729,0-1.32-0.592-1.32-1.321l0,0
				c0-0.729,0.592-1.322,1.32-1.322h21.286C76.901,160.374,77.492,160.967,77.492,161.696L77.492,161.696z"/>
		</g>
	</g>
</g>
</svg>
