<?xml version="1.0" encoding="UTF-8" standalone="no"?>
<svg
   xmlns:dc="http://purl.org/dc/elements/1.1/"
   xmlns:cc="http://creativecommons.org/ns#"
   xmlns:rdf="http://www.w3.org/1999/02/22-rdf-syntax-ns#"
   xmlns:svg="http://www.w3.org/2000/svg"
   xmlns="http://www.w3.org/2000/svg"
   xmlns:sodipodi="http://sodipodi.sourceforge.net/DTD/sodipodi-0.dtd"
   xmlns:inkscape="http://www.inkscape.org/namespaces/inkscape"
   version="1.1"
   id="Layer_1"
   x="0px"
   y="0px"
   width="131.552px"
   height="189.748px"
   viewBox="0 0 131.552 189.748"
   enable-background="new 0 0 131.552 189.748"
   xml:space="preserve"
   inkscape:version="0.91pre4 r13712"
   sodipodi:docname="equipotentialPanelOutline.svg"><sodipodi:namedview
     pagecolor="#ffffff"
     bordercolor="#666666"
     borderopacity="1"
     objecttolerance="10"
     gridtolerance="10"
     guidetolerance="10"
     inkscape:pageopacity="0"
     inkscape:pageshadow="2"
     inkscape:window-width="660"
     inkscape:window-height="480"
     id="namedview105"
     showgrid="false"
     inkscape:zoom="1.2437549"
     inkscape:cx="65.776001"
     inkscape:cy="94.874001"
     inkscape:window-x="0"
     inkscape:window-y="0"
     inkscape:window-maximized="0"
     inkscape:current-layer="Layer_1" /><metadata
     id="metadata3691"><rdf:RDF><cc:Work
         rdf:about=""><dc:format>image/svg+xml</dc:format><dc:type
           rdf:resource="http://purl.org/dc/dcmitype/StillImage" /><dc:title /></cc:Work></rdf:RDF></metadata><defs
     id="defs3689"></defs><g
     id="g3339"><path
       style="fill:#d1d3d4"
       id="path3341"
       d="m 124.775,148.075 c 0,7.039 -5.631,14.01 -12.513,15.488 0,0 -17.715,3.809 -22.448,7.596 -4.705,3.767 -7.185,10.51 -12.047,12.788 -4.861,2.276 -20.262,2.369 -25.751,0 -5.489,-2.37 -5.669,-9.204 -10.612,-12.788 C 36.136,167.342 17.54,163.477 17.54,163.477 10.647,162.045 5.009,155.114 5.009,148.075 l 0,-77.902 c 0,-7.039 5.759,-12.799 12.799,-12.799 l 94.169,0 c 7.039,0 12.799,5.76 12.799,12.799 l 0,77.902 z" /></g><g
     id="g3343"><path
       style="fill:#343c9f"
       id="path3345"
       d="m 120.51,146.7 c 0,6.487 -5.193,12.895 -11.539,14.238 0,0 -16.535,3.5 -20.931,6.963 -4.372,3.444 -6.674,9.611 -11.19,11.694 -4.514,2.083 -18.818,2.167 -23.916,0 -5.098,-2.167 -5.266,-8.417 -9.856,-11.694 -4.892,-3.491 -22.247,-7.042 -22.247,-7.042 -6.355,-1.3 -11.556,-7.672 -11.556,-14.159 l 0,-71.061 c 0,-6.487 5.308,-11.795 11.796,-11.795 l 87.645,0 c 6.486,0 11.795,5.308 11.795,11.795 l 0,71.061 z" /></g><g
     id="g3347"><path
       style="fill:#bcbec0"
       id="path3349"
       d="m 106.737,59.729 -42.22,0 -42.221,0 c -1.681,-0.255 -4.433,-0.17 -7.242,0.629 -2.108,0.599 -3.496,1.512 -4.293,2.37 -0.797,0.859 -1.003,1.664 -0.747,2.044 0.291,0.431 0.68,0.458 1.775,0.17 1.645,-0.434 3.398,-1.265 5.224,-1.783 1.398,-0.397 3.311,-0.861 4.202,-1.064 l 43.048,0 43.048,0 c 0.874,0 2.663,-0.53 2.663,-1.184 0,-0.653 -2.365,-1.182 -3.237,-1.182 z" /><path
       style="fill:#bdbfc1"
       id="path3351"
       d="m 15.075,60.371 c -2.073,0.589 -3.44,1.487 -4.226,2.332 -0.783,0.847 -0.988,1.64 -0.735,2.013 0.103,0.153 0.22,0.252 0.381,0.304 0.288,0.093 0.703,0.034 1.406,-0.15 0.753,-0.199 1.522,-0.477 2.298,-0.77 0.301,-0.107 0.605,-0.22 0.913,-0.33 0.643,-0.238 1.329,-0.471 1.993,-0.658 1.365,-0.388 3.319,-0.841 4.19,-1.04 l 40.767,0 2.168,0 42.982,0 c 0.874,0 2.661,-0.52 2.661,-1.16 0,-0.64 -2.362,-1.16 -3.234,-1.16 l -42.188,0 -0.045,0 -42.111,0 c -0.676,-0.103 -1.59,-0.148 -2.551,-0.113 -0.432,0.017 -0.881,0.049 -1.344,0.099 -1.046,0.106 -2.181,0.309 -3.325,0.633 z" /><path
       style="fill:#bec0c2"
       id="path3353"
       d="m 15.098,60.384 c -2.043,0.58 -3.387,1.464 -4.158,2.295 -0.771,0.832 -0.972,1.612 -0.724,1.98 0.103,0.152 0.22,0.25 0.385,0.298 0.295,0.086 0.713,0.024 1.413,-0.16 0.76,-0.202 1.53,-0.478 2.295,-0.769 0.299,-0.104 0.604,-0.213 0.91,-0.32 0.629,-0.233 1.33,-0.459 1.979,-0.643 1.333,-0.379 3.328,-0.821 4.179,-1.015 l 40.668,0 2.151,0 42.919,0 c 0.872,0 2.659,-0.512 2.659,-1.141 0,-0.628 -2.36,-1.138 -3.232,-1.138 l -42.155,0 -0.06,0 -42.034,0 c -0.66,-0.1 -1.613,-0.145 -2.552,-0.109 -0.431,0.016 -0.88,0.047 -1.338,0.098 -1.034,0.103 -2.164,0.301 -3.305,0.624 z" /><path
       style="fill:#bfc1c3"
       id="path3355"
       d="m 15.119,60.397 c -2.009,0.569 -3.331,1.439 -4.09,2.257 -0.76,0.819 -0.957,1.587 -0.713,1.948 0.104,0.152 0.221,0.247 0.389,0.292 0.301,0.081 0.724,0.014 1.422,-0.171 0.765,-0.203 1.537,-0.479 2.29,-0.767 0.297,-0.102 0.603,-0.207 0.911,-0.312 0.612,-0.227 1.33,-0.447 1.962,-0.626 1.301,-0.37 3.338,-0.802 4.167,-0.99 l 40.572,0 2.134,0 42.854,0 c 0.873,0 2.657,-0.501 2.657,-1.118 0,-0.615 -2.359,-1.115 -3.229,-1.115 l -42.125,0 -0.071,0 -41.958,0 c -0.644,-0.098 -1.636,-0.142 -2.552,-0.107 -0.432,0.016 -0.88,0.047 -1.334,0.097 -1.02,0.097 -2.147,0.289 -3.286,0.612 z" /><path
       style="fill:#c0c2c4"
       id="path3357"
       d="m 15.142,60.409 c -1.977,0.562 -3.276,1.417 -4.024,2.221 -0.746,0.807 -0.939,1.561 -0.699,1.916 0.103,0.152 0.22,0.245 0.394,0.287 0.307,0.075 0.732,0.003 1.428,-0.182 0.771,-0.206 1.544,-0.479 2.285,-0.766 0.298,-0.1 0.603,-0.201 0.909,-0.304 0.598,-0.222 1.332,-0.437 1.949,-0.611 1.268,-0.36 3.347,-0.781 4.155,-0.965 l 40.474,0 2.117,0 42.789,0 c 0.872,0 2.656,-0.491 2.656,-1.097 0,-0.603 -2.357,-1.093 -3.227,-1.093 l -42.092,0 -0.086,0 -41.881,0 c -0.627,-0.095 -1.66,-0.138 -2.553,-0.104 -0.432,0.015 -0.878,0.047 -1.328,0.097 -1.008,0.092 -2.132,0.28 -3.266,0.601 z" /><path
       style="fill:#c1c3c5"
       id="path3359"
       d="m 15.162,60.423 c -1.943,0.552 -3.221,1.393 -3.955,2.184 -0.734,0.792 -0.924,1.533 -0.689,1.883 0.104,0.152 0.221,0.242 0.399,0.281 0.312,0.069 0.741,-0.008 1.435,-0.191 0.777,-0.208 1.553,-0.48 2.281,-0.766 0.297,-0.095 0.601,-0.193 0.91,-0.294 0.581,-0.216 1.332,-0.426 1.933,-0.596 1.235,-0.351 3.354,-0.761 4.143,-0.94 l 40.378,0 2.101,0 42.725,0 c 0.871,0 2.653,-0.48 2.653,-1.073 0,-0.592 -2.356,-1.072 -3.225,-1.072 l -42.062,0 -0.099,0 -41.803,0 c -0.611,-0.092 -1.684,-0.134 -2.554,-0.102 -0.433,0.015 -0.877,0.047 -1.322,0.097 -0.995,0.085 -2.116,0.268 -3.249,0.589 z" /><path
       style="fill:#c2c4c6"
       id="path3361"
       d="m 15.185,60.436 c -1.909,0.543 -3.167,1.369 -3.888,2.147 -0.722,0.777 -0.909,1.506 -0.677,1.851 0.103,0.151 0.22,0.239 0.402,0.274 0.318,0.062 0.751,-0.018 1.441,-0.201 0.785,-0.21 1.562,-0.482 2.279,-0.764 0.292,-0.092 0.599,-0.188 0.907,-0.285 0.566,-0.21 1.332,-0.414 1.918,-0.58 1.203,-0.342 3.364,-0.741 4.131,-0.916 l 40.282,0 2.083,0 42.66,0 c 0.87,0 2.65,-0.471 2.65,-1.052 0,-0.579 -2.353,-1.05 -3.222,-1.05 l -42.024,0 -0.114,0 -41.728,0 c -0.594,-0.09 -1.706,-0.13 -2.555,-0.099 -0.432,0.014 -0.876,0.046 -1.316,0.096 -0.982,0.081 -2.1,0.259 -3.229,0.579 z" /><path
       style="fill:#c3c5c7"
       id="path3363"
       d="m 15.206,60.449 c -1.876,0.533 -3.111,1.345 -3.821,2.109 -0.707,0.765 -0.892,1.481 -0.664,1.818 0.103,0.151 0.221,0.235 0.408,0.269 0.324,0.057 0.76,-0.028 1.448,-0.211 0.79,-0.212 1.568,-0.483 2.274,-0.763 0.293,-0.089 0.598,-0.182 0.908,-0.276 0.551,-0.205 1.332,-0.403 1.901,-0.564 1.171,-0.332 3.373,-0.721 4.119,-0.891 l 40.183,0 2.066,0 42.596,0 c 0.871,0 2.649,-0.462 2.649,-1.03 0,-0.567 -2.351,-1.027 -3.219,-1.027 l -41.994,0 -0.126,0 -41.65,0 c -0.578,-0.088 -1.729,-0.127 -2.554,-0.097 -0.433,0.014 -0.876,0.046 -1.312,0.095 -0.971,0.075 -2.085,0.249 -3.212,0.568 z" /><path
       style="fill:#c4c6c7"
       id="path3365"
       d="m 15.229,60.462 c -1.844,0.523 -3.057,1.321 -3.753,2.072 -0.697,0.751 -0.876,1.454 -0.653,1.786 0.102,0.151 0.22,0.233 0.412,0.263 0.33,0.051 0.77,-0.039 1.455,-0.222 0.796,-0.214 1.576,-0.483 2.27,-0.761 0.293,-0.086 0.598,-0.176 0.908,-0.268 0.535,-0.199 1.332,-0.392 1.885,-0.549 1.14,-0.323 3.383,-0.701 4.109,-0.866 l 40.086,0 2.049,0 42.531,0 c 0.869,0 2.646,-0.452 2.646,-1.008 0,-0.555 -2.349,-1.006 -3.217,-1.006 l -41.963,0 -0.141,0 -41.571,0 c -0.563,-0.085 -1.755,-0.123 -2.556,-0.094 -0.433,0.014 -0.875,0.045 -1.307,0.095 -0.957,0.071 -2.067,0.24 -3.19,0.558 z" /><path
       style="fill:#c5c7c8"
       id="path3367"
       d="m 15.25,60.476 c -1.81,0.514 -3.001,1.298 -3.685,2.034 -0.685,0.738 -0.86,1.429 -0.642,1.755 0.102,0.15 0.22,0.23 0.417,0.257 0.335,0.045 0.779,-0.05 1.46,-0.231 0.804,-0.217 1.586,-0.485 2.268,-0.761 0.29,-0.082 0.596,-0.169 0.906,-0.259 0.521,-0.193 1.335,-0.381 1.872,-0.533 1.104,-0.313 3.39,-0.68 4.095,-0.841 l 39.989,0 2.032,0 42.468,0 c 0.868,0 2.645,-0.442 2.645,-0.986 0,-0.542 -2.348,-0.983 -3.214,-0.983 l -41.931,0 -0.154,0 -41.495,0 c -0.547,-0.083 -1.779,-0.119 -2.557,-0.091 -0.434,0.013 -0.875,0.044 -1.302,0.094 -0.943,0.063 -2.051,0.226 -3.172,0.545 z" /><path
       style="fill:#c6c8c9"
       id="path3369"
       d="m 15.271,60.488 c -1.776,0.505 -2.945,1.274 -3.617,1.997 -0.672,0.725 -0.847,1.403 -0.63,1.723 0.103,0.15 0.22,0.229 0.422,0.251 0.342,0.038 0.788,-0.059 1.469,-0.241 0.81,-0.217 1.591,-0.486 2.262,-0.76 0.29,-0.079 0.594,-0.163 0.906,-0.25 0.505,-0.188 1.334,-0.369 1.856,-0.517 1.073,-0.306 3.398,-0.661 4.083,-0.817 l 39.892,0 2.016,0 42.402,0 c 0.867,0 2.644,-0.432 2.644,-0.964 0,-0.53 -2.347,-0.962 -3.212,-0.962 l -41.9,0 -0.168,0 -41.418,0 c -0.53,-0.08 -1.801,-0.115 -2.556,-0.088 -0.435,0.012 -0.873,0.044 -1.297,0.094 -0.931,0.059 -2.034,0.217 -3.154,0.534 z" /><path
       style="fill:#c7c8ca"
       id="path3371"
       d="m 15.293,60.501 c -1.744,0.495 -2.891,1.25 -3.55,1.961 -0.657,0.711 -0.829,1.375 -0.616,1.689 0.101,0.15 0.218,0.226 0.424,0.245 0.348,0.033 0.799,-0.071 1.477,-0.252 0.815,-0.221 1.6,-0.487 2.258,-0.759 0.289,-0.075 0.593,-0.156 0.905,-0.24 0.49,-0.182 1.335,-0.357 1.841,-0.501 1.041,-0.296 3.408,-0.642 4.07,-0.792 l 39.796,0 1.999,0 42.337,0 c 0.868,0 2.642,-0.423 2.642,-0.942 0,-0.519 -2.344,-0.94 -3.209,-0.94 l -41.868,0 -0.181,0 -41.341,0 c -0.516,-0.077 -1.826,-0.111 -2.559,-0.085 -0.434,0.013 -0.872,0.044 -1.29,0.093 -0.918,0.053 -2.019,0.207 -3.135,0.523 z" /><path
       style="fill:#c8c9cb"
       id="path3373"
       d="m 15.314,60.515 c -1.709,0.486 -2.835,1.227 -3.482,1.923 -0.646,0.697 -0.814,1.351 -0.605,1.658 0.102,0.149 0.22,0.222 0.431,0.238 0.353,0.027 0.808,-0.081 1.481,-0.262 0.823,-0.223 1.607,-0.488 2.255,-0.758 0.287,-0.071 0.592,-0.149 0.905,-0.231 0.475,-0.176 1.334,-0.347 1.825,-0.485 1.009,-0.286 3.417,-0.621 4.06,-0.768 l 39.697,0 1.982,0 42.273,0 c 0.865,0 2.639,-0.413 2.639,-0.92 0,-0.506 -2.343,-0.918 -3.207,-0.918 l -41.835,0 -0.194,0 -41.264,0 c -0.498,-0.075 -1.849,-0.108 -2.559,-0.083 -0.434,0.012 -0.871,0.044 -1.285,0.093 -0.906,0.048 -2.003,0.197 -3.117,0.513 z" /><path
       style="fill:#c9cacc"
       id="path3375"
       d="m 15.337,60.527 c -1.677,0.477 -2.781,1.203 -3.415,1.886 -0.634,0.684 -0.798,1.324 -0.594,1.627 0.101,0.148 0.219,0.219 0.436,0.231 0.357,0.021 0.816,-0.091 1.488,-0.271 0.828,-0.226 1.614,-0.489 2.25,-0.756 0.286,-0.069 0.591,-0.145 0.904,-0.224 0.459,-0.17 1.336,-0.336 1.811,-0.47 0.976,-0.277 3.426,-0.601 4.048,-0.742 l 39.601,0 1.965,0 42.208,0 c 0.866,0 2.638,-0.403 2.638,-0.898 0,-0.494 -2.34,-0.896 -3.205,-0.896 l -41.804,0 -0.208,0 -41.187,0 c -0.482,-0.073 -1.872,-0.105 -2.559,-0.081 -0.435,0.012 -0.871,0.044 -1.281,0.093 -0.892,0.042 -1.987,0.187 -3.096,0.501 z" /><path
       style="fill:#cacbcd"
       id="path3377"
       d="m 15.359,60.541 c -1.645,0.466 -2.727,1.179 -3.348,1.848 -0.621,0.671 -0.782,1.298 -0.582,1.595 0.1,0.148 0.219,0.217 0.439,0.227 0.363,0.016 0.826,-0.103 1.495,-0.282 0.835,-0.228 1.622,-0.491 2.247,-0.755 0.284,-0.066 0.588,-0.138 0.902,-0.214 0.444,-0.165 1.336,-0.325 1.796,-0.455 0.942,-0.268 3.435,-0.581 4.036,-0.718 l 39.503,0 1.948,0 42.144,0 c 0.866,0 2.635,-0.393 2.635,-0.876 0,-0.481 -2.339,-0.874 -3.202,-0.874 l -41.77,0 -0.223,0 -41.108,0 c -0.466,-0.07 -1.895,-0.102 -2.559,-0.077 -0.436,0.011 -0.87,0.042 -1.277,0.091 -0.878,0.036 -1.97,0.176 -3.076,0.49 z" /><path
       style="fill:#cbccce"
       id="path3379"
       d="m 15.381,60.554 c -1.611,0.457 -2.672,1.155 -3.28,1.811 -0.608,0.657 -0.765,1.271 -0.57,1.562 0.1,0.148 0.219,0.214 0.444,0.221 0.369,0.011 0.835,-0.112 1.502,-0.292 0.842,-0.228 1.631,-0.492 2.242,-0.755 0.283,-0.062 0.588,-0.131 0.903,-0.204 0.429,-0.159 1.337,-0.313 1.78,-0.438 0.91,-0.259 3.443,-0.562 4.023,-0.693 l 39.406,0 1.932,0 42.079,0 c 0.864,0 2.633,-0.383 2.633,-0.854 0,-0.47 -2.337,-0.852 -3.2,-0.852 l -41.737,0 -0.235,0 -41.032,0 c -0.45,-0.068 -1.921,-0.099 -2.561,-0.075 -0.436,0.011 -0.869,0.042 -1.271,0.091 -0.867,0.03 -1.955,0.165 -3.058,0.478 z" /><path
       style="fill:#cccdcf"
       id="path3381"
       d="m 15.402,60.566 c -1.578,0.448 -2.617,1.132 -3.213,1.774 -0.596,0.642 -0.75,1.244 -0.559,1.529 0.1,0.148 0.219,0.203 0.449,0.215 0.375,0.019 0.846,-0.123 1.509,-0.303 0.849,-0.231 1.638,-0.492 2.239,-0.753 0.281,-0.06 0.586,-0.124 0.901,-0.195 0.413,-0.153 1.339,-0.303 1.765,-0.423 0.879,-0.25 3.453,-0.541 4.013,-0.669 l 39.31,0 1.914,0 42.015,0 c 0.864,0 2.632,-0.373 2.632,-0.832 0,-0.458 -2.336,-0.83 -3.199,-0.83 l -41.705,0 -0.249,0 -40.954,0 c -0.436,-0.065 -1.943,-0.095 -2.562,-0.072 -0.436,0.011 -0.867,0.042 -1.266,0.091 -0.854,0.026 -1.94,0.157 -3.04,0.468 z" /><path
       style="fill:#cdced0"
       id="path3383"
       d="m 15.424,60.579 c -1.545,0.439 -2.561,1.108 -3.145,1.737 -0.584,0.63 -0.734,1.219 -0.547,1.497 0.1,0.148 0.219,0.201 0.453,0.209 0.381,0.012 0.855,-0.134 1.516,-0.312 0.854,-0.233 1.646,-0.493 2.236,-0.752 0.279,-0.056 0.584,-0.118 0.9,-0.187 0.398,-0.147 1.338,-0.291 1.749,-0.407 0.846,-0.24 3.462,-0.521 4.001,-0.645 l 39.211,0 1.898,0 41.949,0 c 0.865,0 2.629,-0.363 2.629,-0.81 0,-0.445 -2.333,-0.808 -3.195,-0.808 l -41.672,0 -0.263,0 -40.878,0 c -0.417,-0.063 -1.965,-0.092 -2.561,-0.07 -0.436,0.01 -0.867,0.042 -1.26,0.091 -0.841,0.022 -1.924,0.147 -3.021,0.457 z" /><path
       style="fill:#cecfd1"
       id="path3385"
       d="m 15.446,60.593 c -1.513,0.43 -2.507,1.084 -3.079,1.699 -0.57,0.616 -0.717,1.193 -0.533,1.466 0.1,0.147 0.219,0.198 0.457,0.202 0.387,0.006 0.865,-0.144 1.523,-0.322 0.861,-0.234 1.652,-0.495 2.23,-0.751 0.28,-0.053 0.584,-0.112 0.9,-0.178 0.383,-0.142 1.34,-0.28 1.734,-0.392 0.813,-0.231 3.471,-0.501 3.988,-0.619 l 39.115,0 1.881,0 41.885,0 c 0.863,0 2.627,-0.354 2.627,-0.788 0,-0.433 -2.331,-0.786 -3.193,-0.786 l -41.639,0 -0.275,0 -40.801,0 c -0.402,-0.061 -1.99,-0.088 -2.562,-0.066 -0.438,0.01 -0.867,0.041 -1.256,0.09 -0.829,0.014 -1.907,0.134 -3.002,0.445 z" /><path
       style="fill:#cfd0d2"
       id="path3387"
       d="m 15.469,60.606 c -1.479,0.419 -2.453,1.059 -3.012,1.661 -0.559,0.602 -0.701,1.167 -0.521,1.434 0.099,0.147 0.219,0.204 0.462,0.197 0.393,-0.011 0.874,-0.155 1.529,-0.333 0.867,-0.238 1.661,-0.496 2.228,-0.75 0.277,-0.05 0.582,-0.105 0.899,-0.169 0.367,-0.136 1.339,-0.269 1.719,-0.376 0.78,-0.222 3.479,-0.48 3.977,-0.594 l 39.017,0 1.865,0 41.82,0 c 0.863,0 2.625,-0.344 2.625,-0.767 0,-0.421 -2.33,-0.765 -3.191,-0.765 l -41.609,0 -0.291,0 -40.722,0 C 21.878,60.086 20.25,60.06 19.7,60.081 c -0.436,0.009 -0.863,0.04 -1.248,0.089 -0.817,0.011 -1.892,0.126 -2.983,0.436 z" /><path
       style="fill:#d0d1d3"
       id="path3389"
       d="m 15.49,60.619 c -1.445,0.411 -2.396,1.036 -2.943,1.624 -0.545,0.59 -0.688,1.142 -0.512,1.402 0.098,0.146 0.22,0.201 0.467,0.19 0.399,-0.018 0.885,-0.165 1.537,-0.343 0.873,-0.24 1.668,-0.497 2.224,-0.748 0.276,-0.047 0.581,-0.101 0.899,-0.161 0.352,-0.13 1.34,-0.257 1.703,-0.36 0.748,-0.213 3.488,-0.461 3.965,-0.569 l 38.92,0 1.847,0 41.757,0 c 0.862,0 2.623,-0.334 2.623,-0.744 0,-0.409 -2.328,-0.742 -3.188,-0.742 l -41.578,0 -0.303,0 -40.646,0 c -0.37,-0.056 -2.037,-0.081 -2.563,-0.062 -0.437,0.009 -0.864,0.04 -1.245,0.089 -0.804,0.004 -1.876,0.115 -2.964,0.424 z" /><path
       style="fill:#d1d2d4"
       id="path3391"
       d="m 15.512,60.632 c -1.412,0.401 -2.342,1.013 -2.875,1.588 -0.533,0.576 -0.672,1.114 -0.5,1.369 0.1,0.146 0.219,0.198 0.473,0.184 0.404,-0.023 0.893,-0.175 1.541,-0.352 0.881,-0.243 1.678,-0.498 2.221,-0.748 0.275,-0.043 0.58,-0.094 0.898,-0.15 0.337,-0.125 1.34,-0.247 1.688,-0.346 0.716,-0.203 3.498,-0.44 3.953,-0.545 l 38.824,0 1.829,0 41.692,0 c 0.861,0 2.621,-0.323 2.621,-0.722 0,-0.396 -2.326,-0.72 -3.187,-0.72 l -41.544,0 -0.317,0 -40.569,0 c -0.354,-0.054 -2.061,-0.078 -2.564,-0.06 -0.438,0.009 -0.863,0.04 -1.239,0.089 -0.791,-10e-4 -1.859,0.105 -2.945,0.413 z" /><path
       style="fill:#d1d3d4"
       id="path3393"
       d="m 15.533,60.646 c -1.379,0.392 -2.286,0.988 -2.808,1.55 -0.521,0.562 -0.654,1.088 -0.487,1.337 0.099,0.146 0.219,0.196 0.477,0.179 0.41,-0.028 0.902,-0.185 1.55,-0.362 0.886,-0.243 1.683,-0.5 2.215,-0.747 0.274,-0.04 0.579,-0.087 0.897,-0.142 0.321,-0.119 1.342,-0.235 1.674,-0.33 0.683,-0.193 3.506,-0.42 3.941,-0.52 l 38.725,0 1.813,0 41.628,0 c 0.859,0 2.618,-0.314 2.618,-0.7 0,-0.385 -2.323,-0.698 -3.183,-0.698 l -41.512,0 -0.329,0 -40.494,0 c -0.337,-0.051 -2.084,-0.074 -2.564,-0.056 -0.438,0.008 -0.863,0.038 -1.234,0.087 -0.778,-0.007 -1.845,0.095 -2.927,0.402 z" /><path
       style="fill:#d2d4d5"
       id="path3395"
       d="m 15.555,60.658 c -1.346,0.382 -2.23,0.965 -2.74,1.513 -0.508,0.549 -0.638,1.062 -0.475,1.305 0.098,0.146 0.219,0.194 0.48,0.173 0.416,-0.034 0.91,-0.196 1.557,-0.373 0.893,-0.247 1.691,-0.5 2.211,-0.745 0.273,-0.037 0.578,-0.08 0.896,-0.133 0.307,-0.113 1.342,-0.225 1.658,-0.313 0.65,-0.185 3.516,-0.401 3.93,-0.495 l 38.629,0 1.796,0 41.563,0 c 0.859,0 2.616,-0.305 2.616,-0.679 0,-0.372 -2.322,-0.676 -3.181,-0.676 l -41.48,0 -0.344,0 -40.414,0 c -0.321,-0.049 -2.108,-0.07 -2.566,-0.054 -0.438,0.008 -0.862,0.039 -1.229,0.087 -0.765,-0.012 -1.827,0.085 -2.907,0.39 z" /><path
       style="fill:#d3d5d6"
       id="path3397"
       d="m 15.576,60.671 c -1.312,0.373 -2.176,0.941 -2.672,1.477 -0.496,0.536 -0.624,1.036 -0.465,1.272 0.098,0.146 0.219,0.191 0.486,0.167 0.422,-0.039 0.92,-0.208 1.563,-0.384 0.898,-0.249 1.7,-0.501 2.208,-0.744 0.271,-0.033 0.576,-0.074 0.896,-0.124 0.291,-0.107 1.343,-0.213 1.642,-0.298 0.619,-0.176 3.525,-0.38 3.919,-0.47 l 38.531,0 1.779,0 41.498,0 c 0.86,0 2.615,-0.295 2.615,-0.657 0,-0.36 -2.321,-0.654 -3.179,-0.654 l -41.446,0 -0.358,0 -40.338,0 c -0.306,-0.046 -2.132,-0.066 -2.566,-0.051 -0.438,0.008 -0.86,0.039 -1.224,0.087 -0.752,-0.018 -1.811,0.074 -2.889,0.379 z" /><path
       style="fill:#d4d6d7"
       id="path3399"
       d="m 15.598,60.685 c -1.279,0.363 -2.12,0.917 -2.604,1.438 -0.484,0.521 -0.607,1.009 -0.453,1.24 0.098,0.146 0.219,0.189 0.49,0.161 0.427,-0.044 0.93,-0.218 1.57,-0.394 0.906,-0.249 1.707,-0.503 2.203,-0.743 0.271,-0.03 0.576,-0.068 0.896,-0.115 0.275,-0.103 1.342,-0.201 1.627,-0.282 0.585,-0.166 3.533,-0.36 3.906,-0.446 l 38.434,0 1.762,0 41.435,0 c 0.858,0 2.612,-0.284 2.612,-0.634 0,-0.349 -2.318,-0.632 -3.176,-0.632 l -41.415,0 -0.371,0 -40.26,0 c -0.29,-0.044 -2.156,-0.063 -2.568,-0.049 -0.438,0.008 -0.859,0.038 -1.219,0.086 -0.738,-0.022 -1.793,0.065 -2.869,0.37 z" /><path
       style="fill:#d5d7d8"
       id="path3401"
       d="m 15.621,60.697 c -1.246,0.354 -2.066,0.894 -2.538,1.401 -0.47,0.508 -0.592,0.983 -0.44,1.208 0.098,0.145 0.219,0.187 0.495,0.155 0.431,-0.05 0.938,-0.229 1.576,-0.404 0.911,-0.253 1.716,-0.502 2.2,-0.742 0.27,-0.026 0.574,-0.061 0.895,-0.105 0.26,-0.097 1.344,-0.19 1.612,-0.267 0.553,-0.157 3.541,-0.341 3.894,-0.421 l 38.338,0 1.744,0 41.369,0 c 0.859,0 2.611,-0.275 2.611,-0.612 0,-0.336 -2.316,-0.61 -3.174,-0.61 l -41.383,0 -0.385,0 -40.183,0 c -0.273,-0.041 -2.18,-0.06 -2.568,-0.045 -0.439,0.006 -0.859,0.037 -1.213,0.086 -0.727,-0.029 -1.78,0.053 -2.85,0.356 z" /><path
       style="fill:#d6d8d9"
       id="path3403"
       d="m 15.643,60.711 c -1.213,0.345 -2.012,0.869 -2.471,1.363 -0.457,0.495 -0.576,0.957 -0.428,1.177 0.098,0.145 0.218,0.184 0.498,0.148 0.439,-0.056 0.949,-0.238 1.585,-0.413 0.917,-0.256 1.722,-0.505 2.195,-0.741 0.269,-0.024 0.573,-0.056 0.894,-0.098 0.246,-0.091 1.344,-0.178 1.598,-0.25 0.52,-0.147 3.55,-0.321 3.881,-0.396 l 38.24,0 1.729,0 41.305,0 c 0.859,0 2.609,-0.266 2.609,-0.591 0,-0.323 -2.315,-0.589 -3.171,-0.589 l -41.352,0 -0.398,0 -40.107,0 c -0.258,-0.038 -2.203,-0.056 -2.568,-0.042 -0.439,0.006 -0.859,0.037 -1.209,0.085 -0.713,-0.033 -1.762,0.043 -2.83,0.347 z" /><path
       style="fill:#d7d9da"
       id="path3405"
       d="m 15.664,60.724 c -1.18,0.336 -1.956,0.846 -2.402,1.326 -0.445,0.481 -0.561,0.932 -0.417,1.145 0.098,0.144 0.218,0.182 0.504,0.143 0.444,-0.061 0.958,-0.249 1.591,-0.424 0.924,-0.257 1.73,-0.505 2.191,-0.739 0.268,-0.021 0.57,-0.049 0.894,-0.089 0.229,-0.085 1.345,-0.168 1.581,-0.234 0.488,-0.139 3.56,-0.301 3.871,-0.371 l 38.143,0 1.711,0 41.24,0 c 0.857,0 2.607,-0.256 2.607,-0.569 0,-0.312 -2.313,-0.565 -3.169,-0.565 l -41.32,0 -0.412,0 -40.029,0 c -0.241,-0.037 -2.227,-0.053 -2.569,-0.041 -0.439,0.006 -0.857,0.037 -1.203,0.084 -0.701,-0.041 -1.747,0.031 -2.812,0.334 z" /><path
       style="fill:#d8dadb"
       id="path3407"
       d="m 15.686,60.737 c -1.146,0.325 -1.902,0.821 -2.334,1.289 -0.434,0.467 -0.546,0.905 -0.406,1.111 0.097,0.144 0.218,0.18 0.51,0.137 0.449,-0.066 0.967,-0.26 1.597,-0.434 0.931,-0.26 1.737,-0.507 2.188,-0.738 0.266,-0.018 0.569,-0.043 0.892,-0.08 0.215,-0.079 1.345,-0.156 1.566,-0.219 0.455,-0.129 3.567,-0.28 3.858,-0.347 l 38.045,0 1.695,0 41.176,0 c 0.856,0 2.605,-0.246 2.605,-0.547 0,-0.3 -2.312,-0.544 -3.167,-0.544 l -41.286,0 -0.427,0 -39.952,0 c -0.225,-0.034 -2.25,-0.049 -2.57,-0.037 -0.439,0.005 -0.857,0.036 -1.197,0.084 -0.688,-0.044 -1.731,0.024 -2.793,0.325 z" /><path
       style="fill:#d9dbdc"
       id="path3409"
       d="m 15.708,60.75 c -1.114,0.316 -1.847,0.798 -2.268,1.252 -0.421,0.454 -0.528,0.878 -0.394,1.079 0.097,0.144 0.219,0.178 0.514,0.132 0.456,-0.071 0.977,-0.271 1.604,-0.444 0.938,-0.262 1.746,-0.508 2.185,-0.737 0.265,-0.015 0.569,-0.037 0.892,-0.071 0.199,-0.073 1.346,-0.145 1.551,-0.203 0.423,-0.12 3.576,-0.261 3.847,-0.322 l 37.948,0 1.678,0 41.111,0 c 0.855,0 2.603,-0.235 2.603,-0.524 0,-0.287 -2.31,-0.522 -3.164,-0.522 l -41.256,0 -0.439,0 -39.875,0 c -0.21,-0.031 -2.273,-0.045 -2.571,-0.034 -0.44,0.005 -0.855,0.035 -1.192,0.083 -0.675,-0.052 -1.714,0.01 -2.774,0.311 z" /><path
       style="fill:#dadcdd"
       id="path3411"
       d="m 15.729,60.763 c -1.08,0.307 -1.792,0.775 -2.2,1.215 -0.407,0.441 -0.513,0.853 -0.381,1.048 0.096,0.143 0.217,0.175 0.518,0.125 0.462,-0.076 0.986,-0.281 1.611,-0.454 0.943,-0.264 1.753,-0.509 2.18,-0.736 0.264,-0.012 0.567,-0.03 0.891,-0.062 0.184,-0.067 1.347,-0.134 1.536,-0.188 0.39,-0.111 3.585,-0.24 3.835,-0.297 l 37.851,0 1.66,0 41.047,0 c 0.855,0 2.601,-0.227 2.601,-0.503 0,-0.274 -2.308,-0.5 -3.162,-0.5 l -41.222,0 -0.453,0 -39.798,0 c -0.194,-0.029 -2.297,-0.042 -2.571,-0.032 -0.441,0.005 -0.855,0.035 -1.188,0.083 -0.662,-0.057 -1.699,10e-4 -2.755,0.301 z" /><path
       style="fill:#dbddde"
       id="path3413"
       d="m 15.752,60.776 c -1.048,0.298 -1.738,0.75 -2.133,1.177 -0.395,0.427 -0.497,0.826 -0.37,1.016 0.097,0.144 0.216,0.173 0.522,0.119 0.468,-0.082 0.996,-0.291 1.618,-0.464 0.95,-0.265 1.761,-0.51 2.176,-0.736 0.263,-0.007 0.566,-0.023 0.891,-0.052 0.169,-0.062 1.347,-0.124 1.521,-0.173 0.357,-0.102 3.594,-0.221 3.822,-0.272 l 37.754,0 1.645,0 40.981,0 c 0.855,0 2.6,-0.216 2.6,-0.48 0,-0.263 -2.307,-0.479 -3.159,-0.479 l -41.19,0 -0.467,0 -39.722,0 c -0.177,-0.026 -2.32,-0.038 -2.573,-0.029 -0.439,0.005 -0.854,0.035 -1.181,0.083 -0.65,-0.062 -1.682,-0.009 -2.735,0.29 z" /><path
       style="fill:#dcdddf"
       id="path3415"
       d="m 15.773,60.789 c -1.015,0.288 -1.682,0.728 -2.065,1.141 -0.383,0.413 -0.481,0.8 -0.358,0.983 0.097,0.142 0.217,0.169 0.527,0.112 0.473,-0.087 1.006,-0.301 1.625,-0.474 0.956,-0.268 1.769,-0.512 2.172,-0.734 0.262,-0.005 0.564,-0.018 0.891,-0.044 0.152,-0.057 1.347,-0.112 1.504,-0.157 0.326,-0.092 3.604,-0.2 3.811,-0.247 l 37.658,0 1.627,0 40.918,0 c 0.854,0 2.596,-0.206 2.596,-0.459 0,-0.251 -2.305,-0.456 -3.156,-0.456 l -41.16,0 -0.48,0 -39.644,0 c -0.161,-0.024 -2.344,-0.035 -2.572,-0.027 -0.441,0.004 -0.854,0.035 -1.177,0.083 -0.638,-0.068 -1.666,-0.019 -2.717,0.279 z" /><path
       style="fill:#dddee0"
       id="path3417"
       d="m 15.795,60.802 c -0.98,0.279 -1.627,0.703 -1.997,1.104 -0.37,0.401 -0.467,0.774 -0.347,0.951 0.096,0.142 0.219,0.168 0.531,0.107 0.479,-0.092 1.016,-0.313 1.632,-0.485 0.963,-0.27 1.776,-0.511 2.168,-0.733 0.261,-0.001 0.563,-0.011 0.89,-0.034 0.138,-0.051 1.348,-0.101 1.49,-0.141 0.292,-0.083 3.611,-0.181 3.798,-0.224 l 37.561,0 1.61,0 40.852,0 c 0.854,0 2.596,-0.196 2.596,-0.437 0,-0.238 -2.302,-0.434 -3.154,-0.434 l -41.127,0 -0.494,0 -39.566,0 c -0.145,-0.022 -2.367,-0.032 -2.574,-0.024 -0.441,0.004 -0.852,0.034 -1.172,0.081 -0.625,-0.072 -1.649,-0.028 -2.697,0.269 z" /><path
       style="fill:#dedfe1"
       id="path3419"
       d="m 15.816,60.815 c -0.947,0.27 -1.571,0.68 -1.93,1.065 -0.357,0.387 -0.449,0.747 -0.334,0.919 0.096,0.142 0.218,0.166 0.536,0.102 0.484,-0.098 1.024,-0.324 1.638,-0.495 0.969,-0.272 1.785,-0.513 2.165,-0.732 0.258,0.003 0.562,-0.004 0.888,-0.025 0.123,-0.045 1.349,-0.089 1.475,-0.125 0.26,-0.074 3.623,-0.16 3.788,-0.198 l 37.463,0 1.593,0 40.787,0 c 0.854,0 2.594,-0.187 2.594,-0.415 0,-0.227 -2.301,-0.412 -3.152,-0.412 l -41.095,0 -0.506,0 -39.49,0 c -0.129,-0.02 -2.391,-0.028 -2.574,-0.021 -0.443,0.003 -0.852,0.033 -1.167,0.081 -0.611,-0.08 -1.633,-0.04 -2.679,0.256 z" /><path
       style="fill:#dfe0e1"
       id="path3421"
       d="m 15.838,60.828 c -0.914,0.261 -1.516,0.656 -1.861,1.028 -0.345,0.373 -0.435,0.722 -0.323,0.888 0.095,0.141 0.218,0.163 0.541,0.095 0.491,-0.104 1.034,-0.334 1.645,-0.505 0.976,-0.274 1.793,-0.514 2.161,-0.731 0.257,0.006 0.562,0.002 0.888,-0.017 0.107,-0.04 1.349,-0.078 1.459,-0.109 0.228,-0.065 3.631,-0.141 3.776,-0.174 l 37.364,0 1.577,0 40.723,0 c 0.854,0 2.591,-0.177 2.591,-0.393 0,-0.214 -2.299,-0.39 -3.148,-0.39 l -41.063,0 -0.521,0 -39.413,0 C 22.121,60.502 19.82,60.495 19.66,60.5 c -0.443,0.003 -0.852,0.033 -1.162,0.081 -0.6,-0.082 -1.617,-0.048 -2.66,0.247 z" /><path
       style="fill:#e0e1e2"
       id="path3423"
       d="m 15.86,60.842 c -0.881,0.25 -1.463,0.631 -1.795,0.99 -0.333,0.359 -0.418,0.696 -0.311,0.855 0.095,0.141 0.217,0.16 0.545,0.089 0.497,-0.108 1.044,-0.345 1.651,-0.515 0.982,-0.277 1.801,-0.516 2.157,-0.73 0.256,0.009 0.56,0.008 0.887,-0.008 0.092,-0.034 1.35,-0.067 1.444,-0.094 0.195,-0.055 3.64,-0.12 3.764,-0.148 l 37.269,0 1.56,0 40.658,0 c 0.853,0 2.589,-0.167 2.589,-0.371 0,-0.202 -2.296,-0.368 -3.146,-0.368 l -41.03,0 -0.533,0 -39.336,0 c -0.097,-0.015 -2.439,-0.021 -2.577,-0.016 -0.441,0.002 -0.85,0.032 -1.154,0.08 -0.587,-0.088 -1.604,-0.059 -2.642,0.236 z" /><path
       style="fill:#e1e2e3"
       id="path3425"
       d="m 15.881,60.854 c -0.848,0.241 -1.405,0.608 -1.726,0.954 -0.319,0.346 -0.403,0.669 -0.3,0.822 0.095,0.141 0.218,0.158 0.551,0.083 0.502,-0.113 1.052,-0.354 1.658,-0.524 0.987,-0.279 1.808,-0.517 2.152,-0.729 0.256,0.012 0.56,0.015 0.885,0.002 0.078,-0.029 1.352,-0.057 1.43,-0.079 0.163,-0.046 3.649,-0.1 3.752,-0.124 l 37.172,0 1.543,0 40.594,0 c 0.852,0 2.587,-0.157 2.587,-0.349 0,-0.189 -2.295,-0.347 -3.145,-0.347 l -40.997,0 -0.548,0 -39.259,0 c -0.08,-0.012 -2.462,-0.018 -2.576,-0.013 -0.442,0.002 -0.849,0.032 -1.152,0.079 -0.571,-0.093 -1.584,-0.068 -2.621,0.225 z" /><path
       style="fill:#e2e3e4"
       id="path3427"
       d="m 15.904,60.867 c -0.815,0.232 -1.352,0.585 -1.659,0.917 -0.308,0.333 -0.388,0.643 -0.288,0.791 0.094,0.14 0.217,0.155 0.555,0.076 0.508,-0.118 1.062,-0.364 1.666,-0.534 0.994,-0.28 1.814,-0.519 2.147,-0.729 0.255,0.016 0.559,0.021 0.886,0.01 0.061,-0.022 1.35,-0.045 1.413,-0.062 0.13,-0.036 3.657,-0.08 3.74,-0.099 l 37.074,0 1.525,0 40.53,0 c 0.851,0 2.585,-0.147 2.585,-0.327 0,-0.178 -2.294,-0.324 -3.144,-0.324 l -40.962,0 -0.562,0 -39.181,0 c -0.063,-0.01 -2.486,-0.014 -2.577,-0.011 -0.443,0.002 -0.848,0.032 -1.146,0.079 -0.56,-0.098 -1.568,-0.08 -2.602,0.213 z" /><path
       style="fill:#e3e4e5"
       id="path3429"
       d="m 15.926,60.881 c -0.782,0.222 -1.297,0.561 -1.593,0.879 -0.294,0.318 -0.37,0.617 -0.274,0.759 0.094,0.14 0.217,0.153 0.56,0.07 0.514,-0.124 1.07,-0.376 1.672,-0.545 1,-0.283 1.822,-0.518 2.144,-0.727 0.254,0.019 0.557,0.027 0.885,0.02 0.046,-0.018 1.352,-0.033 1.398,-0.047 0.098,-0.028 3.666,-0.061 3.729,-0.074 l 36.977,0 1.51,0 40.465,0 c 0.85,0 2.583,-0.138 2.583,-0.306 0,-0.165 -2.292,-0.302 -3.141,-0.302 l -40.934,0 -0.576,0 -39.103,0 C 22.18,60.6 19.719,60.597 19.65,60.6 c -0.443,10e-4 -0.847,0.031 -1.14,0.078 -0.548,-0.104 -1.554,-0.09 -2.584,0.203 z" /><path
       style="fill:#e4e5e6"
       id="path3431"
       d="m 15.947,60.894 c -0.748,0.214 -1.241,0.537 -1.524,0.843 -0.282,0.305 -0.354,0.59 -0.264,0.726 0.093,0.14 0.218,0.151 0.563,0.065 0.521,-0.129 1.081,-0.387 1.68,-0.556 1.006,-0.285 1.83,-0.519 2.14,-0.726 0.252,0.021 0.556,0.033 0.885,0.028 0.03,-0.012 1.352,-0.022 1.384,-0.031 0.064,-0.019 3.674,-0.041 3.716,-0.05 l 36.88,0 1.491,0 40.4,0 c 0.851,0 2.581,-0.128 2.581,-0.283 0,-0.153 -2.289,-0.28 -3.137,-0.28 l -40.9,0 -0.59,0 -39.026,0 c -0.032,-0.005 -2.532,-0.007 -2.578,-0.005 -0.444,0 -0.847,0.03 -1.135,0.077 -0.535,-0.109 -1.538,-0.099 -2.566,0.192 z" /><path
       style="fill:#e5e6e7"
       id="path3433"
       d="m 15.969,60.907 c -0.717,0.203 -1.187,0.513 -1.457,0.805 -0.27,0.291 -0.338,0.564 -0.251,0.694 0.094,0.139 0.218,0.148 0.568,0.059 0.525,-0.135 1.089,-0.397 1.685,-0.565 1.015,-0.288 1.838,-0.521 2.137,-0.725 0.251,0.025 0.555,0.04 0.884,0.037 0.015,-0.006 1.353,-0.011 1.368,-0.016 0.033,-0.01 3.684,-0.02 3.704,-0.024 l 36.782,0 1.477,0 40.336,0 c 0.848,0 2.578,-0.119 2.578,-0.262 0,-0.142 -2.287,-0.258 -3.135,-0.258 l -40.869,0 -0.603,0 -38.948,0 c -0.016,-0.003 -2.557,-0.004 -2.58,-0.003 -0.443,0 -0.846,0.03 -1.131,0.077 -0.521,-0.115 -1.52,-0.11 -2.545,0.181 z" /><path
       style="fill:#e6e7e8"
       id="path3435"
       d="m 102.547,60.674 -41.452,0 -41.452,0 c -0.444,0 -0.845,0.03 -1.125,0.077 -0.509,-0.121 -1.505,-0.121 -2.526,0.169 -0.683,0.194 -1.132,0.489 -1.39,0.768 -0.257,0.278 -0.323,0.538 -0.24,0.662 0.094,0.139 0.218,0.147 0.572,0.053 0.533,-0.138 1.101,-0.407 1.693,-0.575 1.02,-0.29 1.846,-0.521 2.133,-0.724 0.249,0.028 0.553,0.046 0.883,0.046 l 41.73,0 41.729,0 c 0.85,0 2.578,-0.108 2.578,-0.239 0,-0.13 -2.286,-0.237 -3.133,-0.237 z" /></g><g
     id="g3640"><g
       id="g3642"><linearGradient
         y2="169.2227"
         x2="65.528297"
         y1="166.5811"
         x1="65.528297"
         gradientUnits="userSpaceOnUse"
         id="SVGID_16_"><stop
           id="stop3645"
           style="stop-color:#333333"
           offset="0.0099" /><stop
           id="stop3647"
           style="stop-color:#7E7E7E"
           offset="0.0985" /><stop
           id="stop3649"
           style="stop-color:#FFFFFF"
           offset="0.2414" /><stop
           id="stop3651"
           style="stop-color:#7E7E7E"
           offset="0.4039" /><stop
           id="stop3653"
           style="stop-color:#000000"
           offset="0.8867" /></linearGradient><path
         style="fill:url(#SVGID_16_)"
         id="path3655"
         d="m 77.492,167.902 c 0,0.729 -0.591,1.32 -1.321,1.32 l -21.286,0 c -0.729,0 -1.32,-0.591 -1.32,-1.32 l 0,0 c 0,-0.73 0.592,-1.321 1.32,-1.321 l 21.286,0 c 0.73,0 1.321,0.591 1.321,1.321 l 0,0 z" /></g><g
       id="g3657"><linearGradient
         y2="175.4287"
         x2="65.528297"
         y1="172.7861"
         x1="65.528297"
         gradientUnits="userSpaceOnUse"
         id="SVGID_18_"><stop
           id="stop3660"
           style="stop-color:#333333"
           offset="0.0099" /><stop
           id="stop3662"
           style="stop-color:#7E7E7E"
           offset="0.0985" /><stop
           id="stop3664"
           style="stop-color:#FFFFFF"
           offset="0.2414" /><stop
           id="stop3666"
           style="stop-color:#7E7E7E"
           offset="0.4039" /><stop
           id="stop3668"
           style="stop-color:#000000"
           offset="0.8867" /></linearGradient><path
         style="fill:url(#SVGID_18_)"
         id="path3670"
         d="m 77.492,174.108 c 0,0.729 -0.591,1.32 -1.321,1.32 l -21.286,0 c -0.729,0 -1.32,-0.591 -1.32,-1.32 l 0,0 c 0,-0.73 0.592,-1.322 1.32,-1.322 l 21.286,0 c 0.73,0 1.321,0.592 1.321,1.322 l 0,0 z" /></g><g
       id="g3672"><linearGradient
         y2="163.01759"
         x2="65.528297"
         y1="160.37399"
         x1="65.528297"
         gradientUnits="userSpaceOnUse"
         id="SVGID_20_"><stop
           id="stop3675"
           style="stop-color:#333333"
           offset="0.0099" /><stop
           id="stop3677"
           style="stop-color:#7E7E7E"
           offset="0.0985" /><stop
           id="stop3679"
           style="stop-color:#FFFFFF"
           offset="0.2414" /><stop
           id="stop3681"
           style="stop-color:#7E7E7E"
           offset="0.4039" /><stop
           id="stop3683"
           style="stop-color:#000000"
           offset="0.8867" /></linearGradient><path
         style="fill:url(#SVGID_20_)"
         id="path3685"
         d="m 77.492,161.696 c 0,0.729 -0.591,1.321 -1.321,1.321 l -21.286,0 c -0.729,0 -1.32,-0.592 -1.32,-1.321 l 0,0 c 0,-0.729 0.592,-1.322 1.32,-1.322 l 21.286,0 c 0.73,0 1.321,0.593 1.321,1.322 l 0,0 z" /></g></g></svg>